<mxfile host="Electron" modified="2025-02-05T11:09:58.300Z" agent="Mozilla/5.0 (Windows NT 10.0; Win64; x64) AppleWebKit/537.36 (KHTML, like Gecko) draw.io/24.6.4 Chrome/124.0.6367.207 Electron/30.0.6 Safari/537.36" etag="XGUrMzxAern8bXxzOtri" version="24.6.4" type="device">
  <diagram name="Page-1" id="jV77SFPxc7joPnHyWRUS">
    <mxGraphModel dx="1573" dy="423" grid="1" gridSize="10" guides="1" tooltips="1" connect="1" arrows="1" fold="1" page="1" pageScale="1" pageWidth="850" pageHeight="1100" math="0" shadow="0">
      <root>
        <mxCell id="0" />
        <mxCell id="1" parent="0" />
        <mxCell id="_Nc8eTW4AAFqFcOwRR8p-46" value="" style="group" parent="1" vertex="1" connectable="0">
          <mxGeometry x="-167" y="580" width="820" height="110" as="geometry" />
        </mxCell>
        <mxCell id="_Nc8eTW4AAFqFcOwRR8p-1" value="" style="endArrow=block;startArrow=block;html=1;rounded=0;endSize=12;strokeWidth=2;targetPerimeterSpacing=17;startSize=12;startFill=1;endFill=1;" parent="_Nc8eTW4AAFqFcOwRR8p-46" edge="1">
          <mxGeometry width="50" height="50" relative="1" as="geometry">
            <mxPoint as="sourcePoint" />
            <mxPoint x="820.0000000000001" as="targetPoint" />
          </mxGeometry>
        </mxCell>
        <mxCell id="_Nc8eTW4AAFqFcOwRR8p-2" value="" style="endArrow=block;startArrow=block;html=1;rounded=0;endSize=12;strokeWidth=2;targetPerimeterSpacing=17;startSize=12;startFill=1;endFill=1;" parent="_Nc8eTW4AAFqFcOwRR8p-46" edge="1">
          <mxGeometry width="50" height="50" relative="1" as="geometry">
            <mxPoint y="27.5" as="sourcePoint" />
            <mxPoint x="820.0000000000001" y="27.5" as="targetPoint" />
          </mxGeometry>
        </mxCell>
        <mxCell id="_Nc8eTW4AAFqFcOwRR8p-3" value="" style="endArrow=block;startArrow=block;html=1;rounded=0;endSize=12;strokeWidth=2;targetPerimeterSpacing=17;startSize=12;startFill=1;endFill=1;" parent="_Nc8eTW4AAFqFcOwRR8p-46" edge="1">
          <mxGeometry width="50" height="50" relative="1" as="geometry">
            <mxPoint y="55" as="sourcePoint" />
            <mxPoint x="820.0000000000001" y="55" as="targetPoint" />
          </mxGeometry>
        </mxCell>
        <mxCell id="_Nc8eTW4AAFqFcOwRR8p-4" value="" style="endArrow=block;startArrow=block;html=1;rounded=0;endSize=12;strokeWidth=2;targetPerimeterSpacing=17;startSize=12;startFill=1;endFill=1;" parent="_Nc8eTW4AAFqFcOwRR8p-46" edge="1">
          <mxGeometry width="50" height="50" relative="1" as="geometry">
            <mxPoint y="82.5" as="sourcePoint" />
            <mxPoint x="820.0000000000001" y="82.5" as="targetPoint" />
          </mxGeometry>
        </mxCell>
        <mxCell id="_Nc8eTW4AAFqFcOwRR8p-7" value="" style="endArrow=block;startArrow=block;html=1;rounded=0;endSize=12;strokeWidth=2;targetPerimeterSpacing=17;startSize=12;startFill=1;endFill=1;" parent="_Nc8eTW4AAFqFcOwRR8p-46" edge="1">
          <mxGeometry width="50" height="50" relative="1" as="geometry">
            <mxPoint y="110" as="sourcePoint" />
            <mxPoint x="820.0000000000001" y="110" as="targetPoint" />
          </mxGeometry>
        </mxCell>
        <mxCell id="_Nc8eTW4AAFqFcOwRR8p-14" value="" style="group;rotation=90;" parent="1" vertex="1" connectable="0">
          <mxGeometry x="-629.9999999999991" y="812.997272727273" width="1030" height="480" as="geometry" />
        </mxCell>
        <mxCell id="_Nc8eTW4AAFqFcOwRR8p-367" value="" style="group" parent="_Nc8eTW4AAFqFcOwRR8p-14" vertex="1" connectable="0">
          <mxGeometry x="490" y="-274.99750000000455" width="272.01" height="707.1875000000045" as="geometry" />
        </mxCell>
        <mxCell id="_Nc8eTW4AAFqFcOwRR8p-9" value="" style="endArrow=block;startArrow=block;html=1;rounded=0;endSize=12;strokeWidth=2;startSize=12;startFill=1;endFill=1;sourcePerimeterSpacing=17;fillColor=#d5e8d4;strokeColor=#000000;" parent="_Nc8eTW4AAFqFcOwRR8p-367" edge="1">
          <mxGeometry width="50" height="50" relative="1" as="geometry">
            <mxPoint x="98.00999999999999" y="579.3750000000099" as="sourcePoint" />
            <mxPoint x="98.00999999999999" as="targetPoint" />
          </mxGeometry>
        </mxCell>
        <mxCell id="_Nc8eTW4AAFqFcOwRR8p-10" value="" style="endArrow=block;startArrow=block;html=1;rounded=0;endSize=12;strokeWidth=2;startSize=12;startFill=1;endFill=1;sourcePerimeterSpacing=17;fillColor=#d5e8d4;strokeColor=#82b366;" parent="_Nc8eTW4AAFqFcOwRR8p-367" edge="1">
          <mxGeometry width="50" height="50" relative="1" as="geometry">
            <mxPoint x="78.00999999999999" y="579.3750000000099" as="sourcePoint" />
            <mxPoint x="78.00999999999999" as="targetPoint" />
          </mxGeometry>
        </mxCell>
        <mxCell id="_Nc8eTW4AAFqFcOwRR8p-11" value="" style="endArrow=block;startArrow=block;html=1;rounded=0;endSize=12;strokeWidth=2;startSize=12;startFill=1;endFill=1;sourcePerimeterSpacing=17;fillColor=#d5e8d4;strokeColor=#000000;" parent="_Nc8eTW4AAFqFcOwRR8p-367" edge="1">
          <mxGeometry width="50" height="50" relative="1" as="geometry">
            <mxPoint x="58.00999999999999" y="578.3750000000099" as="sourcePoint" />
            <mxPoint x="58.00999999999999" y="-1" as="targetPoint" />
          </mxGeometry>
        </mxCell>
        <mxCell id="_Nc8eTW4AAFqFcOwRR8p-12" value="" style="endArrow=block;startArrow=block;html=1;rounded=0;endSize=12;strokeWidth=2;startSize=12;startFill=1;endFill=1;sourcePerimeterSpacing=17;" parent="_Nc8eTW4AAFqFcOwRR8p-367" edge="1">
          <mxGeometry width="50" height="50" relative="1" as="geometry">
            <mxPoint x="38.00999999999999" y="579.3750000000099" as="sourcePoint" />
            <mxPoint x="38.00999999999999" as="targetPoint" />
          </mxGeometry>
        </mxCell>
        <mxCell id="_Nc8eTW4AAFqFcOwRR8p-13" value="" style="endArrow=block;startArrow=block;html=1;rounded=0;endSize=12;strokeWidth=2;startSize=12;startFill=1;endFill=1;sourcePerimeterSpacing=17;" parent="_Nc8eTW4AAFqFcOwRR8p-367" edge="1">
          <mxGeometry width="50" height="50" relative="1" as="geometry">
            <mxPoint x="18.00999999999999" y="579.3750000000099" as="sourcePoint" />
            <mxPoint x="18.00999999999999" as="targetPoint" />
          </mxGeometry>
        </mxCell>
        <mxCell id="_Nc8eTW4AAFqFcOwRR8p-323" value="" style="rounded=0;whiteSpace=wrap;html=1;rotation=90;" parent="_Nc8eTW4AAFqFcOwRR8p-367" vertex="1">
          <mxGeometry x="-6.990000000000009" y="597.1875000000045" width="46.25" height="15" as="geometry" />
        </mxCell>
        <mxCell id="_Nc8eTW4AAFqFcOwRR8p-324" value="" style="rounded=0;whiteSpace=wrap;html=1;rotation=90;" parent="_Nc8eTW4AAFqFcOwRR8p-367" vertex="1">
          <mxGeometry x="13.009999999999991" y="597.1875000000045" width="46.25" height="13.75" as="geometry" />
        </mxCell>
        <mxCell id="_Nc8eTW4AAFqFcOwRR8p-325" value="" style="rounded=0;whiteSpace=wrap;html=1;rotation=90;" parent="_Nc8eTW4AAFqFcOwRR8p-367" vertex="1">
          <mxGeometry x="34.879999999999995" y="597.1875000000045" width="46.25" height="13.75" as="geometry" />
        </mxCell>
        <mxCell id="_Nc8eTW4AAFqFcOwRR8p-328" value="" style="rounded=0;whiteSpace=wrap;html=1;rotation=90;" parent="_Nc8eTW4AAFqFcOwRR8p-367" vertex="1">
          <mxGeometry x="53.00999999999999" y="597.1875000000045" width="46.25" height="13.75" as="geometry" />
        </mxCell>
        <mxCell id="_Nc8eTW4AAFqFcOwRR8p-329" value="" style="rounded=0;whiteSpace=wrap;html=1;rotation=90;" parent="_Nc8eTW4AAFqFcOwRR8p-367" vertex="1">
          <mxGeometry x="72.75999999999999" y="597.1875000000045" width="46.25" height="13.75" as="geometry" />
        </mxCell>
        <mxCell id="_Nc8eTW4AAFqFcOwRR8p-361" value="" style="rounded=0;whiteSpace=wrap;html=1;" parent="_Nc8eTW4AAFqFcOwRR8p-367" vertex="1">
          <mxGeometry y="632.1875000000045" width="110" height="75" as="geometry" />
        </mxCell>
        <mxCell id="AiwuUsq-4AUICBw67kCG-2" value="" style="shape=process;whiteSpace=wrap;html=1;backgroundOutline=1;fillColor=#f8cecc;strokeColor=#b85450;" parent="_Nc8eTW4AAFqFcOwRR8p-367" vertex="1">
          <mxGeometry x="46.99999999999909" y="551.0002272727315" width="20" height="10" as="geometry" />
        </mxCell>
        <mxCell id="_Nc8eTW4AAFqFcOwRR8p-373" value="&lt;font face=&quot;Times New Roman&quot; style=&quot;font-size: 20px;&quot;&gt;&lt;i&gt;y&lt;sub&gt;R&lt;/sub&gt;&lt;/i&gt;&lt;/font&gt;" style="text;html=1;align=center;verticalAlign=middle;resizable=0;points=[];autosize=1;strokeColor=none;fillColor=none;" parent="_Nc8eTW4AAFqFcOwRR8p-14" vertex="1">
          <mxGeometry x="369.9999999999991" y="-250.437272727273" width="40" height="40" as="geometry" />
        </mxCell>
        <mxCell id="_Nc8eTW4AAFqFcOwRR8p-374" value="&lt;font face=&quot;Times New Roman&quot; style=&quot;font-size: 20px;&quot;&gt;&lt;i&gt;y&lt;sub&gt;r+1&lt;/sub&gt;&lt;/i&gt;&lt;/font&gt;" style="text;html=1;align=center;verticalAlign=middle;resizable=0;points=[];autosize=1;strokeColor=none;fillColor=none;" parent="_Nc8eTW4AAFqFcOwRR8p-14" vertex="1">
          <mxGeometry x="359.9999999999991" y="-139.99727272727296" width="60" height="40" as="geometry" />
        </mxCell>
        <mxCell id="_Nc8eTW4AAFqFcOwRR8p-375" value="&lt;font face=&quot;Times New Roman&quot; style=&quot;font-size: 20px;&quot;&gt;&lt;i&gt;y&lt;sub&gt;r&lt;/sub&gt;&lt;/i&gt;&lt;/font&gt;" style="text;html=1;align=center;verticalAlign=middle;resizable=0;points=[];autosize=1;strokeColor=none;fillColor=none;" parent="_Nc8eTW4AAFqFcOwRR8p-14" vertex="1">
          <mxGeometry x="369.9999999999991" y="92.00272727272704" width="40" height="40" as="geometry" />
        </mxCell>
        <mxCell id="_Nc8eTW4AAFqFcOwRR8p-376" value="&lt;font face=&quot;Times New Roman&quot; style=&quot;font-size: 20px;&quot;&gt;1&lt;/font&gt;" style="text;html=1;align=center;verticalAlign=middle;resizable=0;points=[];autosize=1;strokeColor=none;fillColor=none;" parent="_Nc8eTW4AAFqFcOwRR8p-14" vertex="1">
          <mxGeometry x="389.9999999999991" y="195.00272727272704" width="30" height="40" as="geometry" />
        </mxCell>
        <mxCell id="FiogaW06bN8v249RT5EK-1" value="" style="shape=curlyBracket;whiteSpace=wrap;html=1;rounded=1;labelPosition=left;verticalLabelPosition=middle;align=right;verticalAlign=middle;strokeWidth=2;" parent="_Nc8eTW4AAFqFcOwRR8p-14" vertex="1">
          <mxGeometry x="320" y="-245" width="20" height="135" as="geometry" />
        </mxCell>
        <mxCell id="FiogaW06bN8v249RT5EK-3" value="&lt;font size=&quot;1&quot; style=&quot;&quot; face=&quot;Times New Roman&quot;&gt;&lt;b style=&quot;font-size: 23px;&quot;&gt;&lt;i&gt;Y&lt;sup&gt;S&lt;/sup&gt;&lt;/i&gt;&lt;/b&gt;&lt;/font&gt;" style="text;html=1;align=center;verticalAlign=middle;resizable=0;points=[];autosize=1;strokeColor=none;fillColor=none;" parent="_Nc8eTW4AAFqFcOwRR8p-14" vertex="1">
          <mxGeometry x="279.9999999999991" y="-217.49727272727296" width="50" height="50" as="geometry" />
        </mxCell>
        <mxCell id="FiogaW06bN8v249RT5EK-4" value="" style="shape=curlyBracket;whiteSpace=wrap;html=1;rounded=1;labelPosition=left;verticalLabelPosition=middle;align=right;verticalAlign=middle;strokeWidth=2;" parent="_Nc8eTW4AAFqFcOwRR8p-14" vertex="1">
          <mxGeometry x="310" y="110" width="30" height="109" as="geometry" />
        </mxCell>
        <mxCell id="FiogaW06bN8v249RT5EK-5" value="&lt;b style=&quot;forced-color-adjust: none; color: rgb(0, 0, 0); font-family: &amp;quot;Times New Roman&amp;quot;; font-style: normal; font-variant-ligatures: normal; font-variant-caps: normal; letter-spacing: normal; orphans: 2; text-align: center; text-indent: 0px; text-transform: none; widows: 2; word-spacing: 0px; -webkit-text-stroke-width: 0px; white-space: nowrap; background-color: rgb(251, 251, 251); text-decoration-thickness: initial; text-decoration-style: initial; text-decoration-color: initial; font-size: 23px;&quot;&gt;&lt;i style=&quot;forced-color-adjust: none;&quot;&gt;Y&lt;sup style=&quot;forced-color-adjust: none;&quot;&gt;L&lt;/sup&gt;&lt;/i&gt;&lt;/b&gt;" style="text;whiteSpace=wrap;html=1;" parent="_Nc8eTW4AAFqFcOwRR8p-14" vertex="1">
          <mxGeometry x="274.9999999999991" y="139.00272727272704" width="60" height="60" as="geometry" />
        </mxCell>
        <mxCell id="AiwuUsq-4AUICBw67kCG-101" value="45m" style="shape=curlyBracket;whiteSpace=wrap;html=1;rounded=1;labelPosition=left;verticalLabelPosition=middle;align=right;verticalAlign=middle;" parent="_Nc8eTW4AAFqFcOwRR8p-14" vertex="1">
          <mxGeometry x="479.9999999999991" y="-117.99727272727296" width="20" height="210" as="geometry" />
        </mxCell>
        <mxCell id="_Nc8eTW4AAFqFcOwRR8p-47" value="" style="group" parent="1" vertex="1" connectable="0">
          <mxGeometry x="-179" y="912" width="838" height="144.59" as="geometry" />
        </mxCell>
        <mxCell id="_Nc8eTW4AAFqFcOwRR8p-48" value="" style="endArrow=block;startArrow=block;html=1;rounded=0;endSize=12;strokeWidth=2;targetPerimeterSpacing=17;startSize=12;startFill=1;endFill=1;" parent="_Nc8eTW4AAFqFcOwRR8p-47" edge="1">
          <mxGeometry width="50" height="50" relative="1" as="geometry">
            <mxPoint as="sourcePoint" />
            <mxPoint x="837.9999999999999" as="targetPoint" />
          </mxGeometry>
        </mxCell>
        <mxCell id="_Nc8eTW4AAFqFcOwRR8p-49" value="" style="endArrow=block;startArrow=block;html=1;rounded=0;endSize=12;strokeWidth=2;targetPerimeterSpacing=17;startSize=12;startFill=1;endFill=1;" parent="_Nc8eTW4AAFqFcOwRR8p-47" edge="1">
          <mxGeometry width="50" height="50" relative="1" as="geometry">
            <mxPoint y="36.1475" as="sourcePoint" />
            <mxPoint x="837.9999999999999" y="36.1475" as="targetPoint" />
          </mxGeometry>
        </mxCell>
        <mxCell id="_Nc8eTW4AAFqFcOwRR8p-50" value="" style="endArrow=block;startArrow=block;html=1;rounded=0;endSize=12;strokeWidth=2;targetPerimeterSpacing=17;startSize=12;startFill=1;endFill=1;" parent="_Nc8eTW4AAFqFcOwRR8p-47" edge="1">
          <mxGeometry width="50" height="50" relative="1" as="geometry">
            <mxPoint y="72.295" as="sourcePoint" />
            <mxPoint x="837.9999999999999" y="72.295" as="targetPoint" />
          </mxGeometry>
        </mxCell>
        <mxCell id="_Nc8eTW4AAFqFcOwRR8p-51" value="" style="endArrow=block;startArrow=block;html=1;rounded=0;endSize=12;strokeWidth=2;targetPerimeterSpacing=17;startSize=12;startFill=1;endFill=1;" parent="_Nc8eTW4AAFqFcOwRR8p-47" edge="1">
          <mxGeometry width="50" height="50" relative="1" as="geometry">
            <mxPoint y="108.4425" as="sourcePoint" />
            <mxPoint x="837.9999999999999" y="108.4425" as="targetPoint" />
          </mxGeometry>
        </mxCell>
        <mxCell id="_Nc8eTW4AAFqFcOwRR8p-52" value="" style="endArrow=block;startArrow=block;html=1;rounded=0;endSize=12;strokeWidth=2;targetPerimeterSpacing=17;startSize=12;startFill=1;endFill=1;" parent="_Nc8eTW4AAFqFcOwRR8p-47" edge="1">
          <mxGeometry width="50" height="50" relative="1" as="geometry">
            <mxPoint y="144.59" as="sourcePoint" />
            <mxPoint x="837.9999999999999" y="144.59" as="targetPoint" />
          </mxGeometry>
        </mxCell>
        <mxCell id="AiwuUsq-4AUICBw67kCG-87" value="6m" style="shape=curlyBracket;whiteSpace=wrap;html=1;rounded=1;labelPosition=left;verticalLabelPosition=middle;align=right;verticalAlign=middle;" parent="_Nc8eTW4AAFqFcOwRR8p-47" vertex="1">
          <mxGeometry x="35.7420382165605" y="4.3377" width="17.34713375796178" height="28.918" as="geometry" />
        </mxCell>
        <mxCell id="_Nc8eTW4AAFqFcOwRR8p-55" value="" style="endArrow=block;startArrow=none;html=1;rounded=0;endSize=12;strokeWidth=2;startSize=12;startFill=0;endFill=1;sourcePerimeterSpacing=17;fillColor=#d5e8d4;strokeColor=#82b366;" parent="1" edge="1">
          <mxGeometry width="50" height="50" relative="1" as="geometry">
            <mxPoint x="110" y="1020" as="sourcePoint" />
            <mxPoint x="112" y="536" as="targetPoint" />
          </mxGeometry>
        </mxCell>
        <mxCell id="_Nc8eTW4AAFqFcOwRR8p-56" value="" style="endArrow=block;startArrow=none;html=1;rounded=0;endSize=12;strokeWidth=2;startSize=12;startFill=0;endFill=1;sourcePerimeterSpacing=17;fillColor=#f8cecc;strokeColor=#b85450;" parent="1" edge="1">
          <mxGeometry width="50" height="50" relative="1" as="geometry">
            <mxPoint x="135" y="690" as="sourcePoint" />
            <mxPoint x="135.0000000000009" y="537" as="targetPoint" />
          </mxGeometry>
        </mxCell>
        <mxCell id="_Nc8eTW4AAFqFcOwRR8p-16" value="" style="endArrow=block;startArrow=block;html=1;rounded=0;endSize=12;strokeWidth=2;startSize=12;startFill=1;endFill=1;sourcePerimeterSpacing=17;fillColor=#f8cecc;strokeColor=#000000;" parent="1" edge="1">
          <mxGeometry width="50" height="50" relative="1" as="geometry">
            <mxPoint x="87.00000000000091" y="1117.1847727272784" as="sourcePoint" />
            <mxPoint x="87.00000000000091" y="537.8097727272684" as="targetPoint" />
          </mxGeometry>
        </mxCell>
        <mxCell id="_Nc8eTW4AAFqFcOwRR8p-17" value="" style="endArrow=block;startArrow=block;html=1;rounded=0;endSize=12;strokeWidth=2;startSize=12;startFill=1;endFill=1;sourcePerimeterSpacing=17;fillColor=#f8cecc;strokeColor=#000000;" parent="1" edge="1">
          <mxGeometry width="50" height="50" relative="1" as="geometry">
            <mxPoint x="67.00000000000091" y="1117.1847727272784" as="sourcePoint" />
            <mxPoint x="67.00000000000091" y="537.8097727272684" as="targetPoint" />
          </mxGeometry>
        </mxCell>
        <mxCell id="_Nc8eTW4AAFqFcOwRR8p-18" value="" style="endArrow=block;startArrow=block;html=1;rounded=0;endSize=12;strokeWidth=2;startSize=12;startFill=1;endFill=1;sourcePerimeterSpacing=17;" parent="1" edge="1">
          <mxGeometry width="50" height="50" relative="1" as="geometry">
            <mxPoint x="47.00000000000091" y="1117.1847727272784" as="sourcePoint" />
            <mxPoint x="47.00000000000091" y="537.8097727272684" as="targetPoint" />
          </mxGeometry>
        </mxCell>
        <mxCell id="_Nc8eTW4AAFqFcOwRR8p-19" value="" style="endArrow=block;startArrow=block;html=1;rounded=0;endSize=12;strokeWidth=2;startSize=12;startFill=1;endFill=1;sourcePerimeterSpacing=17;fillColor=#d5e8d4;strokeColor=#82b366;" parent="1" edge="1">
          <mxGeometry width="50" height="50" relative="1" as="geometry">
            <mxPoint x="25.00000000000091" y="1117.1847727272784" as="sourcePoint" />
            <mxPoint x="25.00000000000091" y="537.8097727272684" as="targetPoint" />
          </mxGeometry>
        </mxCell>
        <mxCell id="_Nc8eTW4AAFqFcOwRR8p-20" value="" style="endArrow=block;startArrow=block;html=1;rounded=0;endSize=12;strokeWidth=2;startSize=12;startFill=1;endFill=1;sourcePerimeterSpacing=17;fillColor=#d5e8d4;strokeColor=#000000;" parent="1" edge="1">
          <mxGeometry width="50" height="50" relative="1" as="geometry">
            <mxPoint x="4.0000000000009095" y="1117.1847727272784" as="sourcePoint" />
            <mxPoint x="4.0000000000009095" y="537.8097727272684" as="targetPoint" />
          </mxGeometry>
        </mxCell>
        <mxCell id="_Nc8eTW4AAFqFcOwRR8p-330" value="" style="rounded=0;whiteSpace=wrap;html=1;rotation=90;" parent="1" vertex="1">
          <mxGeometry x="-18.99999999999909" y="1135.997272727273" width="46.25" height="15" as="geometry" />
        </mxCell>
        <mxCell id="_Nc8eTW4AAFqFcOwRR8p-331" value="" style="rounded=0;whiteSpace=wrap;html=1;rotation=90;" parent="1" vertex="1">
          <mxGeometry x="1.0000000000009095" y="1135.997272727273" width="46.25" height="13.75" as="geometry" />
        </mxCell>
        <mxCell id="_Nc8eTW4AAFqFcOwRR8p-332" value="" style="rounded=0;whiteSpace=wrap;html=1;rotation=90;" parent="1" vertex="1">
          <mxGeometry x="22.870000000000914" y="1135.997272727273" width="46.25" height="13.75" as="geometry" />
        </mxCell>
        <mxCell id="_Nc8eTW4AAFqFcOwRR8p-333" value="" style="rounded=0;whiteSpace=wrap;html=1;rotation=90;" parent="1" vertex="1">
          <mxGeometry x="41.00000000000091" y="1135.997272727273" width="46.25" height="13.75" as="geometry" />
        </mxCell>
        <mxCell id="_Nc8eTW4AAFqFcOwRR8p-334" value="" style="rounded=0;whiteSpace=wrap;html=1;rotation=90;" parent="1" vertex="1">
          <mxGeometry x="60.75000000000091" y="1135.997272727273" width="46.25" height="13.75" as="geometry" />
        </mxCell>
        <mxCell id="_Nc8eTW4AAFqFcOwRR8p-335" value="" style="rounded=0;whiteSpace=wrap;html=1;rotation=90;" parent="1" vertex="1">
          <mxGeometry x="114.00000000000091" y="1135.997272727273" width="46.25" height="15" as="geometry" />
        </mxCell>
        <mxCell id="_Nc8eTW4AAFqFcOwRR8p-336" value="" style="rounded=0;whiteSpace=wrap;html=1;rotation=90;" parent="1" vertex="1">
          <mxGeometry x="134.0000000000009" y="1135.997272727273" width="46.25" height="13.75" as="geometry" />
        </mxCell>
        <mxCell id="_Nc8eTW4AAFqFcOwRR8p-337" value="" style="rounded=0;whiteSpace=wrap;html=1;rotation=90;" parent="1" vertex="1">
          <mxGeometry x="155.8700000000009" y="1135.997272727273" width="46.25" height="13.75" as="geometry" />
        </mxCell>
        <mxCell id="_Nc8eTW4AAFqFcOwRR8p-338" value="" style="rounded=0;whiteSpace=wrap;html=1;rotation=90;" parent="1" vertex="1">
          <mxGeometry x="174.0000000000009" y="1135.997272727273" width="46.25" height="13.75" as="geometry" />
        </mxCell>
        <mxCell id="_Nc8eTW4AAFqFcOwRR8p-339" value="" style="rounded=0;whiteSpace=wrap;html=1;rotation=90;" parent="1" vertex="1">
          <mxGeometry x="193.7500000000009" y="1135.997272727273" width="46.25" height="13.75" as="geometry" />
        </mxCell>
        <mxCell id="_Nc8eTW4AAFqFcOwRR8p-369" value="&lt;font face=&quot;Times New Roman&quot; style=&quot;font-size: 20px;&quot;&gt;1&lt;/font&gt;" style="text;html=1;align=center;verticalAlign=middle;resizable=0;points=[];autosize=1;strokeColor=none;fillColor=none;" parent="1" vertex="1">
          <mxGeometry x="-150" y="493" width="30" height="40" as="geometry" />
        </mxCell>
        <mxCell id="FiogaW06bN8v249RT5EK-6" value="" style="shape=curlyBracket;whiteSpace=wrap;html=1;rounded=1;labelPosition=left;verticalLabelPosition=middle;align=right;verticalAlign=middle;strokeWidth=3;" parent="1" vertex="1">
          <mxGeometry x="-410" y="560" width="50" height="470" as="geometry" />
        </mxCell>
        <mxCell id="FiogaW06bN8v249RT5EK-7" value="&lt;font face=&quot;Times New Roman&quot; style=&quot;font-size: 26px;&quot;&gt;&lt;b style=&quot;&quot;&gt;105m&lt;i&gt;= Y&lt;/i&gt;&lt;sup style=&quot;font-style: italic;&quot;&gt;R&lt;/sup&gt;&lt;/b&gt;&lt;/font&gt;" style="text;html=1;align=center;verticalAlign=middle;resizable=0;points=[];autosize=1;strokeColor=none;fillColor=none;" parent="1" vertex="1">
          <mxGeometry x="-545" y="770" width="140" height="50" as="geometry" />
        </mxCell>
        <mxCell id="FiogaW06bN8v249RT5EK-9" value="" style="shape=curlyBracket;whiteSpace=wrap;html=1;rounded=1;labelPosition=left;verticalLabelPosition=middle;align=right;verticalAlign=middle;rotation=90;strokeWidth=3;" parent="1" vertex="1">
          <mxGeometry x="188.5" y="-47.5" width="50" height="795" as="geometry" />
        </mxCell>
        <mxCell id="FiogaW06bN8v249RT5EK-10" value="&lt;font face=&quot;Times New Roman&quot; style=&quot;font-size: 26px;&quot;&gt;&lt;b&gt;&lt;i&gt;X&lt;sup&gt;R&lt;/sup&gt;&lt;/i&gt;&lt;/b&gt;&lt;/font&gt;" style="text;html=1;align=center;verticalAlign=middle;resizable=0;points=[];autosize=1;strokeColor=none;fillColor=none;" parent="1" vertex="1">
          <mxGeometry x="181" y="270" width="60" height="50" as="geometry" />
        </mxCell>
        <mxCell id="_Nc8eTW4AAFqFcOwRR8p-119" value="" style="group;aspect=fixed;" parent="1" vertex="1" connectable="0">
          <mxGeometry x="-110.00000000000003" y="402.18" width="122.1" height="295.82" as="geometry" />
        </mxCell>
        <mxCell id="_Nc8eTW4AAFqFcOwRR8p-120" value="" style="endArrow=none;html=1;rounded=0;strokeWidth=4;" parent="_Nc8eTW4AAFqFcOwRR8p-119" edge="1">
          <mxGeometry width="50" height="50" relative="1" as="geometry">
            <mxPoint x="22.470000000000002" y="154.17978314095836" as="sourcePoint" />
            <mxPoint x="22.470000000000002" y="24.344176285414477" as="targetPoint" />
          </mxGeometry>
        </mxCell>
        <mxCell id="_Nc8eTW4AAFqFcOwRR8p-121" value="" style="endArrow=none;html=1;rounded=0;strokeWidth=4;" parent="_Nc8eTW4AAFqFcOwRR8p-119" edge="1">
          <mxGeometry width="50" height="50" relative="1" as="geometry">
            <mxPoint x="74.89999999999999" y="154.17978314095836" as="sourcePoint" />
            <mxPoint x="74.89999999999999" y="24.344176285414477" as="targetPoint" />
          </mxGeometry>
        </mxCell>
        <mxCell id="_Nc8eTW4AAFqFcOwRR8p-122" value="" style="endArrow=none;html=1;rounded=0;" parent="_Nc8eTW4AAFqFcOwRR8p-119" edge="1">
          <mxGeometry width="50" height="50" relative="1" as="geometry">
            <mxPoint x="48.685" y="154.17978314095836" as="sourcePoint" />
            <mxPoint x="48.685" as="targetPoint" />
          </mxGeometry>
        </mxCell>
        <mxCell id="_Nc8eTW4AAFqFcOwRR8p-123" value="" style="endArrow=none;html=1;rounded=0;" parent="_Nc8eTW4AAFqFcOwRR8p-119" edge="1">
          <mxGeometry width="50" height="50" relative="1" as="geometry">
            <mxPoint x="22.470000000000002" y="32.45890171388597" as="sourcePoint" />
            <mxPoint x="74.89999999999999" y="32.45890171388597" as="targetPoint" />
          </mxGeometry>
        </mxCell>
        <mxCell id="_Nc8eTW4AAFqFcOwRR8p-124" value="" style="endArrow=none;html=1;rounded=0;" parent="_Nc8eTW4AAFqFcOwRR8p-119" edge="1">
          <mxGeometry width="50" height="50" relative="1" as="geometry">
            <mxPoint x="22.470000000000002" y="40.573627142357466" as="sourcePoint" />
            <mxPoint x="74.89999999999999" y="40.573627142357466" as="targetPoint" />
          </mxGeometry>
        </mxCell>
        <mxCell id="_Nc8eTW4AAFqFcOwRR8p-125" value="" style="endArrow=none;html=1;rounded=0;" parent="_Nc8eTW4AAFqFcOwRR8p-119" edge="1">
          <mxGeometry width="50" height="50" relative="1" as="geometry">
            <mxPoint x="22.470000000000002" y="48.688352570828954" as="sourcePoint" />
            <mxPoint x="74.89999999999999" y="48.688352570828954" as="targetPoint" />
          </mxGeometry>
        </mxCell>
        <mxCell id="_Nc8eTW4AAFqFcOwRR8p-126" value="" style="endArrow=none;html=1;rounded=0;" parent="_Nc8eTW4AAFqFcOwRR8p-119" edge="1">
          <mxGeometry width="50" height="50" relative="1" as="geometry">
            <mxPoint x="22.470000000000002" y="56.80307799930045" as="sourcePoint" />
            <mxPoint x="74.89999999999999" y="56.80307799930045" as="targetPoint" />
          </mxGeometry>
        </mxCell>
        <mxCell id="_Nc8eTW4AAFqFcOwRR8p-127" value="" style="endArrow=none;html=1;rounded=0;" parent="_Nc8eTW4AAFqFcOwRR8p-119" edge="1">
          <mxGeometry width="50" height="50" relative="1" as="geometry">
            <mxPoint x="22.470000000000002" y="64.91780342777194" as="sourcePoint" />
            <mxPoint x="74.89999999999999" y="64.91780342777194" as="targetPoint" />
          </mxGeometry>
        </mxCell>
        <mxCell id="_Nc8eTW4AAFqFcOwRR8p-128" value="" style="endArrow=none;html=1;rounded=0;" parent="_Nc8eTW4AAFqFcOwRR8p-119" edge="1">
          <mxGeometry width="50" height="50" relative="1" as="geometry">
            <mxPoint x="22.470000000000002" y="73.03252885624343" as="sourcePoint" />
            <mxPoint x="74.89999999999999" y="73.03252885624343" as="targetPoint" />
          </mxGeometry>
        </mxCell>
        <mxCell id="_Nc8eTW4AAFqFcOwRR8p-129" value="" style="endArrow=none;html=1;rounded=0;" parent="_Nc8eTW4AAFqFcOwRR8p-119" edge="1">
          <mxGeometry width="50" height="50" relative="1" as="geometry">
            <mxPoint x="22.470000000000002" y="73.03252885624343" as="sourcePoint" />
            <mxPoint x="74.89999999999999" y="73.03252885624343" as="targetPoint" />
          </mxGeometry>
        </mxCell>
        <mxCell id="_Nc8eTW4AAFqFcOwRR8p-130" value="" style="endArrow=none;html=1;rounded=0;" parent="_Nc8eTW4AAFqFcOwRR8p-119" edge="1">
          <mxGeometry width="50" height="50" relative="1" as="geometry">
            <mxPoint x="22.470000000000002" y="81.14725428471493" as="sourcePoint" />
            <mxPoint x="74.89999999999999" y="81.14725428471493" as="targetPoint" />
          </mxGeometry>
        </mxCell>
        <mxCell id="_Nc8eTW4AAFqFcOwRR8p-131" value="" style="endArrow=none;html=1;rounded=0;" parent="_Nc8eTW4AAFqFcOwRR8p-119" edge="1">
          <mxGeometry width="50" height="50" relative="1" as="geometry">
            <mxPoint x="22.470000000000002" y="89.26197971318642" as="sourcePoint" />
            <mxPoint x="74.89999999999999" y="89.26197971318642" as="targetPoint" />
          </mxGeometry>
        </mxCell>
        <mxCell id="_Nc8eTW4AAFqFcOwRR8p-132" value="" style="endArrow=none;html=1;rounded=0;" parent="_Nc8eTW4AAFqFcOwRR8p-119" edge="1">
          <mxGeometry width="50" height="50" relative="1" as="geometry">
            <mxPoint x="22.470000000000002" y="97.37670514165791" as="sourcePoint" />
            <mxPoint x="74.89999999999999" y="97.37670514165791" as="targetPoint" />
          </mxGeometry>
        </mxCell>
        <mxCell id="_Nc8eTW4AAFqFcOwRR8p-133" value="" style="endArrow=none;html=1;rounded=0;" parent="_Nc8eTW4AAFqFcOwRR8p-119" edge="1">
          <mxGeometry width="50" height="50" relative="1" as="geometry">
            <mxPoint x="22.470000000000002" y="105.49143057012941" as="sourcePoint" />
            <mxPoint x="74.89999999999999" y="105.49143057012941" as="targetPoint" />
          </mxGeometry>
        </mxCell>
        <mxCell id="_Nc8eTW4AAFqFcOwRR8p-134" value="" style="endArrow=none;html=1;rounded=0;" parent="_Nc8eTW4AAFqFcOwRR8p-119" edge="1">
          <mxGeometry width="50" height="50" relative="1" as="geometry">
            <mxPoint x="22.470000000000002" y="113.6061559986009" as="sourcePoint" />
            <mxPoint x="74.89999999999999" y="113.6061559986009" as="targetPoint" />
          </mxGeometry>
        </mxCell>
        <mxCell id="_Nc8eTW4AAFqFcOwRR8p-135" value="" style="endArrow=none;html=1;rounded=0;" parent="_Nc8eTW4AAFqFcOwRR8p-119" edge="1">
          <mxGeometry width="50" height="50" relative="1" as="geometry">
            <mxPoint x="22.470000000000002" y="121.7208814270724" as="sourcePoint" />
            <mxPoint x="74.89999999999999" y="121.7208814270724" as="targetPoint" />
          </mxGeometry>
        </mxCell>
        <mxCell id="_Nc8eTW4AAFqFcOwRR8p-136" value="" style="endArrow=none;html=1;rounded=0;" parent="_Nc8eTW4AAFqFcOwRR8p-119" edge="1">
          <mxGeometry width="50" height="50" relative="1" as="geometry">
            <mxPoint x="22.470000000000002" y="129.8356068555439" as="sourcePoint" />
            <mxPoint x="74.89999999999999" y="129.8356068555439" as="targetPoint" />
          </mxGeometry>
        </mxCell>
        <mxCell id="_Nc8eTW4AAFqFcOwRR8p-137" value="" style="endArrow=none;html=1;rounded=0;" parent="_Nc8eTW4AAFqFcOwRR8p-119" edge="1">
          <mxGeometry width="50" height="50" relative="1" as="geometry">
            <mxPoint x="22.470000000000002" y="137.9503322840154" as="sourcePoint" />
            <mxPoint x="74.89999999999999" y="137.9503322840154" as="targetPoint" />
          </mxGeometry>
        </mxCell>
        <mxCell id="_Nc8eTW4AAFqFcOwRR8p-138" value="" style="endArrow=none;html=1;rounded=0;" parent="_Nc8eTW4AAFqFcOwRR8p-119" edge="1">
          <mxGeometry width="50" height="50" relative="1" as="geometry">
            <mxPoint x="22.470000000000002" y="146.06505771248686" as="sourcePoint" />
            <mxPoint x="74.89999999999999" y="146.06505771248686" as="targetPoint" />
          </mxGeometry>
        </mxCell>
        <mxCell id="_Nc8eTW4AAFqFcOwRR8p-139" value="" style="endArrow=none;html=1;rounded=0;" parent="_Nc8eTW4AAFqFcOwRR8p-119" edge="1">
          <mxGeometry width="50" height="50" relative="1" as="geometry">
            <mxPoint x="22.470000000000002" y="154.17978314095836" as="sourcePoint" />
            <mxPoint x="74.89999999999999" y="154.17978314095836" as="targetPoint" />
          </mxGeometry>
        </mxCell>
        <mxCell id="_Nc8eTW4AAFqFcOwRR8p-140" value="" style="endArrow=none;html=1;rounded=0;strokeWidth=4;" parent="_Nc8eTW4AAFqFcOwRR8p-119" edge="1">
          <mxGeometry width="50" height="50" relative="1" as="geometry">
            <mxPoint x="37.449999999999996" as="sourcePoint" />
            <mxPoint x="59.92" as="targetPoint" />
          </mxGeometry>
        </mxCell>
        <mxCell id="_Nc8eTW4AAFqFcOwRR8p-141" value="" style="endArrow=none;html=1;rounded=0;strokeWidth=4;" parent="_Nc8eTW4AAFqFcOwRR8p-119" edge="1">
          <mxGeometry width="50" height="50" relative="1" as="geometry">
            <mxPoint x="74.89999999999999" y="24.344176285414477" as="sourcePoint" />
            <mxPoint x="59.92" as="targetPoint" />
          </mxGeometry>
        </mxCell>
        <mxCell id="_Nc8eTW4AAFqFcOwRR8p-142" value="" style="endArrow=none;html=1;rounded=0;strokeWidth=4;" parent="_Nc8eTW4AAFqFcOwRR8p-119" edge="1">
          <mxGeometry width="50" height="50" relative="1" as="geometry">
            <mxPoint x="22.470000000000002" y="24.344176285414477" as="sourcePoint" />
            <mxPoint x="37.449999999999996" as="targetPoint" />
          </mxGeometry>
        </mxCell>
        <mxCell id="_Nc8eTW4AAFqFcOwRR8p-143" value="" style="endArrow=none;html=1;rounded=0;strokeWidth=9;" parent="_Nc8eTW4AAFqFcOwRR8p-119" edge="1">
          <mxGeometry width="50" height="50" relative="1" as="geometry">
            <mxPoint y="24.344176285414477" as="sourcePoint" />
            <mxPoint x="97.37" y="24.344176285414477" as="targetPoint" />
          </mxGeometry>
        </mxCell>
        <mxCell id="_Nc8eTW4AAFqFcOwRR8p-144" value="" style="endArrow=none;html=1;rounded=0;" parent="_Nc8eTW4AAFqFcOwRR8p-119" edge="1">
          <mxGeometry width="50" height="50" relative="1" as="geometry">
            <mxPoint x="29.96" y="12.172088142707238" as="sourcePoint" />
            <mxPoint x="67.41" y="12.172088142707238" as="targetPoint" />
          </mxGeometry>
        </mxCell>
        <mxCell id="_Nc8eTW4AAFqFcOwRR8p-145" value="" style="group" parent="_Nc8eTW4AAFqFcOwRR8p-119" vertex="1" connectable="0">
          <mxGeometry x="22.47" y="140" width="99.63" height="155.82" as="geometry" />
        </mxCell>
        <mxCell id="_Nc8eTW4AAFqFcOwRR8p-146" value="" style="rounded=0;whiteSpace=wrap;html=1;rotation=90;" parent="_Nc8eTW4AAFqFcOwRR8p-145" vertex="1">
          <mxGeometry x="-46.46" y="48.11" width="146.09" height="66.1" as="geometry" />
        </mxCell>
        <mxCell id="_Nc8eTW4AAFqFcOwRR8p-147" value="" style="rounded=0;whiteSpace=wrap;html=1;" parent="_Nc8eTW4AAFqFcOwRR8p-145" vertex="1">
          <mxGeometry x="3.97" y="16.92" width="45.25" height="18.08" as="geometry" />
        </mxCell>
        <mxCell id="_Nc8eTW4AAFqFcOwRR8p-148" value="" style="rounded=0;whiteSpace=wrap;html=1;" parent="_Nc8eTW4AAFqFcOwRR8p-145" vertex="1">
          <mxGeometry x="3.960074653528648" y="40.81858477912863" width="45.25085089979126" height="20.823243791372818" as="geometry" />
        </mxCell>
        <mxCell id="_Nc8eTW4AAFqFcOwRR8p-149" value="" style="rounded=0;whiteSpace=wrap;html=1;" parent="_Nc8eTW4AAFqFcOwRR8p-145" vertex="1">
          <mxGeometry x="3.9600000000000004" y="68.03" width="45.25" height="19.77" as="geometry" />
        </mxCell>
        <mxCell id="_Nc8eTW4AAFqFcOwRR8p-150" value="" style="rounded=0;whiteSpace=wrap;html=1;" parent="_Nc8eTW4AAFqFcOwRR8p-145" vertex="1">
          <mxGeometry x="3.96" y="95.82" width="45.25" height="23.31" as="geometry" />
        </mxCell>
        <mxCell id="_Nc8eTW4AAFqFcOwRR8p-151" value="" style="rounded=0;whiteSpace=wrap;html=1;" parent="_Nc8eTW4AAFqFcOwRR8p-145" vertex="1">
          <mxGeometry x="3.9660295774647847" y="129.82036559511954" width="45.24794084507042" height="17.49332496863237" as="geometry" />
        </mxCell>
        <mxCell id="HH2GkFfhaR6v-Zu-v0qC-105" value="&lt;font color=&quot;#97d077&quot;&gt;QC1 vertical Paths&lt;/font&gt;&lt;div&gt;&lt;br&gt;&lt;/div&gt;" style="text;html=1;align=center;verticalAlign=middle;resizable=0;points=[];autosize=1;" parent="1" vertex="1">
          <mxGeometry x="-310" y="403" width="120" height="40" as="geometry" />
        </mxCell>
        <mxCell id="HH2GkFfhaR6v-Zu-v0qC-106" value="&lt;font&gt;QC2 vertical Paths&lt;/font&gt;&lt;div&gt;&lt;br&gt;&lt;/div&gt;" style="text;html=1;align=center;verticalAlign=middle;resizable=0;points=[];autosize=1;fontColor=#bf5651;" parent="1" vertex="1">
          <mxGeometry x="-310" y="432" width="120" height="40" as="geometry" />
        </mxCell>
        <mxCell id="HH2GkFfhaR6v-Zu-v0qC-107" value="&lt;font&gt;QC3&lt;/font&gt;&lt;span style=&quot;background-color: initial;&quot;&gt;&amp;nbsp;vertical Paths&lt;/span&gt;&lt;div&gt;&lt;div&gt;&lt;br&gt;&lt;/div&gt;&lt;/div&gt;" style="text;html=1;align=center;verticalAlign=middle;resizable=0;points=[];autosize=1;fontColor=#678ebd;" parent="1" vertex="1">
          <mxGeometry x="-310" y="453" width="120" height="40" as="geometry" />
        </mxCell>
        <mxCell id="AiwuUsq-4AUICBw67kCG-84" value="" style="shape=process;whiteSpace=wrap;html=1;backgroundOutline=1;fillColor=#dae8fc;strokeColor=#6c8ebf;" parent="1" vertex="1">
          <mxGeometry x="77" y="545" width="20" height="10" as="geometry" />
        </mxCell>
        <mxCell id="AiwuUsq-4AUICBw67kCG-100" value="6m" style="shape=curlyBracket;whiteSpace=wrap;html=1;rounded=1;labelPosition=left;verticalLabelPosition=middle;align=right;verticalAlign=middle;" parent="1" vertex="1">
          <mxGeometry x="-139" y="666" width="13" height="20" as="geometry" />
        </mxCell>
        <mxCell id="AiwuUsq-4AUICBw67kCG-102" value="" style="shape=curlyBracket;whiteSpace=wrap;html=1;rounded=1;labelPosition=left;verticalLabelPosition=middle;align=right;verticalAlign=middle;rotation=90;" parent="1" vertex="1">
          <mxGeometry x="-119" y="518" width="13" height="20" as="geometry" />
        </mxCell>
        <mxCell id="AiwuUsq-4AUICBw67kCG-104" value="8m" style="text;html=1;align=center;verticalAlign=middle;resizable=0;points=[];autosize=1;strokeColor=none;fillColor=none;" parent="1" vertex="1">
          <mxGeometry x="-133.5" y="502" width="40" height="30" as="geometry" />
        </mxCell>
        <mxCell id="_Nc8eTW4AAFqFcOwRR8p-371" value="&lt;font face=&quot;Times New Roman&quot; style=&quot;font-size: 20px;&quot;&gt;&lt;i&gt;x&lt;sub&gt;R&lt;/sub&gt;&lt;/i&gt;&lt;/font&gt;" style="text;html=1;align=center;verticalAlign=middle;resizable=0;points=[];autosize=1;strokeColor=none;fillColor=none;" parent="1" vertex="1">
          <mxGeometry x="605" y="490" width="40" height="40" as="geometry" />
        </mxCell>
        <mxCell id="_Nc8eTW4AAFqFcOwRR8p-21" value="" style="group;rotation=90;" parent="1" vertex="1" connectable="0">
          <mxGeometry x="-339.9999999999991" y="804.997272727273" width="1030" height="1050" as="geometry" />
        </mxCell>
        <mxCell id="_Nc8eTW4AAFqFcOwRR8p-22" value="" style="endArrow=block;startArrow=block;html=1;rounded=0;endSize=12;strokeWidth=2;startSize=12;startFill=1;endFill=1;sourcePerimeterSpacing=17;fillColor=#dae8fc;strokeColor=#000000;" parent="_Nc8eTW4AAFqFcOwRR8p-21" edge="1">
          <mxGeometry width="50" height="50" relative="1" as="geometry">
            <mxPoint x="555" y="312.18750000000534" as="sourcePoint" />
            <mxPoint x="555" y="-267.18750000000455" as="targetPoint" />
          </mxGeometry>
        </mxCell>
        <mxCell id="_Nc8eTW4AAFqFcOwRR8p-23" value="" style="endArrow=block;startArrow=block;html=1;rounded=0;endSize=12;strokeWidth=2;startSize=12;startFill=1;endFill=1;sourcePerimeterSpacing=17;fillColor=#f8cecc;strokeColor=#b85450;" parent="_Nc8eTW4AAFqFcOwRR8p-21" edge="1">
          <mxGeometry width="50" height="50" relative="1" as="geometry">
            <mxPoint x="535" y="312.18750000000534" as="sourcePoint" />
            <mxPoint x="535" y="-267.18750000000455" as="targetPoint" />
          </mxGeometry>
        </mxCell>
        <mxCell id="_Nc8eTW4AAFqFcOwRR8p-24" value="" style="endArrow=block;startArrow=block;html=1;rounded=0;endSize=12;strokeWidth=2;startSize=12;startFill=1;endFill=1;sourcePerimeterSpacing=17;fillColor=#f8cecc;strokeColor=#000000;" parent="_Nc8eTW4AAFqFcOwRR8p-21" edge="1">
          <mxGeometry width="50" height="50" relative="1" as="geometry">
            <mxPoint x="515" y="312.18750000000534" as="sourcePoint" />
            <mxPoint x="515" y="-267.18750000000455" as="targetPoint" />
          </mxGeometry>
        </mxCell>
        <mxCell id="_Nc8eTW4AAFqFcOwRR8p-25" value="" style="endArrow=block;startArrow=block;html=1;rounded=0;endSize=12;strokeWidth=2;startSize=12;startFill=1;endFill=1;sourcePerimeterSpacing=17;fillColor=#f8cecc;strokeColor=#000000;" parent="_Nc8eTW4AAFqFcOwRR8p-21" edge="1">
          <mxGeometry width="50" height="50" relative="1" as="geometry">
            <mxPoint x="495" y="312.18750000000534" as="sourcePoint" />
            <mxPoint x="495" y="-267.18750000000455" as="targetPoint" />
          </mxGeometry>
        </mxCell>
        <mxCell id="_Nc8eTW4AAFqFcOwRR8p-26" value="" style="endArrow=block;startArrow=block;html=1;rounded=0;endSize=12;strokeWidth=2;startSize=12;startFill=1;endFill=1;sourcePerimeterSpacing=17;" parent="_Nc8eTW4AAFqFcOwRR8p-21" edge="1">
          <mxGeometry width="50" height="50" relative="1" as="geometry">
            <mxPoint x="475" y="312.18750000000534" as="sourcePoint" />
            <mxPoint x="475" y="-267.18750000000455" as="targetPoint" />
          </mxGeometry>
        </mxCell>
        <mxCell id="_Nc8eTW4AAFqFcOwRR8p-363" value="" style="rounded=0;whiteSpace=wrap;html=1;" parent="_Nc8eTW4AAFqFcOwRR8p-21" vertex="1">
          <mxGeometry x="460" y="365" width="110" height="75" as="geometry" />
        </mxCell>
        <mxCell id="_Nc8eTW4AAFqFcOwRR8p-54" value="" style="endArrow=block;startArrow=none;html=1;rounded=0;endSize=12;strokeWidth=2;startSize=12;startFill=0;endFill=1;sourcePerimeterSpacing=17;" parent="_Nc8eTW4AAFqFcOwRR8p-21" edge="1">
          <mxGeometry width="50" height="50" relative="1" as="geometry">
            <mxPoint x="319.9999999999991" y="215.00272727272704" as="sourcePoint" />
            <mxPoint x="323" y="-267.99727272727296" as="targetPoint" />
          </mxGeometry>
        </mxCell>
        <mxCell id="_Nc8eTW4AAFqFcOwRR8p-362" value="" style="rounded=0;whiteSpace=wrap;html=1;" parent="_Nc8eTW4AAFqFcOwRR8p-21" vertex="1">
          <mxGeometry x="329" y="365" width="110" height="75" as="geometry" />
        </mxCell>
        <mxCell id="AiwuUsq-4AUICBw67kCG-7" value="" style="shape=process;whiteSpace=wrap;html=1;backgroundOutline=1;fillColor=#f8cecc;strokeColor=#b85450;" parent="_Nc8eTW4AAFqFcOwRR8p-21" vertex="1">
          <mxGeometry x="465.9999999999991" y="283.1927272727271" width="20" height="10" as="geometry" />
        </mxCell>
        <mxCell id="AiwuUsq-4AUICBw67kCG-8" value="" style="endArrow=block;startArrow=block;html=1;rounded=0;endSize=12;strokeWidth=2;startSize=12;startFill=1;endFill=1;sourcePerimeterSpacing=17;" parent="_Nc8eTW4AAFqFcOwRR8p-21" edge="1">
          <mxGeometry width="50" height="50" relative="1" as="geometry">
            <mxPoint x="694" y="311.3775000000055" as="sourcePoint" />
            <mxPoint x="694" y="-267.9975000000045" as="targetPoint" />
          </mxGeometry>
        </mxCell>
        <mxCell id="AiwuUsq-4AUICBw67kCG-80" value="" style="shape=process;whiteSpace=wrap;html=1;backgroundOutline=1;fillColor=#f8cecc;strokeColor=#b85450;" parent="_Nc8eTW4AAFqFcOwRR8p-21" vertex="1">
          <mxGeometry x="542.9999999999991" y="283.00272727272704" width="20" height="10" as="geometry" />
        </mxCell>
        <mxCell id="YRqoyZLrJu3xnGDMMG7B-3" value="" style="group" vertex="1" connectable="0" parent="1">
          <mxGeometry x="243" y="537.8097727272684" width="125.00000000000091" height="707.1875000000045" as="geometry" />
        </mxCell>
        <mxCell id="_Nc8eTW4AAFqFcOwRR8p-57" value="" style="endArrow=block;startArrow=none;html=1;rounded=0;endSize=12;strokeWidth=2;startSize=12;startFill=0;endFill=1;sourcePerimeterSpacing=17;" parent="YRqoyZLrJu3xnGDMMG7B-3" edge="1">
          <mxGeometry width="50" height="50" relative="1" as="geometry">
            <mxPoint y="482.1902272727316" as="sourcePoint" />
            <mxPoint x="9.094947017729282e-13" y="0.19022727273159035" as="targetPoint" />
          </mxGeometry>
        </mxCell>
        <mxCell id="_Nc8eTW4AAFqFcOwRR8p-340" value="" style="rounded=0;whiteSpace=wrap;html=1;rotation=90;" parent="YRqoyZLrJu3xnGDMMG7B-3" vertex="1">
          <mxGeometry x="6.0000000000009095" y="599.1875000000045" width="46.25" height="15" as="geometry" />
        </mxCell>
        <mxCell id="_Nc8eTW4AAFqFcOwRR8p-341" value="" style="rounded=0;whiteSpace=wrap;html=1;rotation=90;" parent="YRqoyZLrJu3xnGDMMG7B-3" vertex="1">
          <mxGeometry x="26.00000000000091" y="599.1875000000045" width="46.25" height="13.75" as="geometry" />
        </mxCell>
        <mxCell id="_Nc8eTW4AAFqFcOwRR8p-342" value="" style="rounded=0;whiteSpace=wrap;html=1;rotation=90;" parent="YRqoyZLrJu3xnGDMMG7B-3" vertex="1">
          <mxGeometry x="47.870000000000914" y="599.1875000000045" width="46.25" height="13.75" as="geometry" />
        </mxCell>
        <mxCell id="_Nc8eTW4AAFqFcOwRR8p-343" value="" style="rounded=0;whiteSpace=wrap;html=1;rotation=90;" parent="YRqoyZLrJu3xnGDMMG7B-3" vertex="1">
          <mxGeometry x="66.00000000000091" y="599.1875000000045" width="46.25" height="13.75" as="geometry" />
        </mxCell>
        <mxCell id="_Nc8eTW4AAFqFcOwRR8p-344" value="" style="rounded=0;whiteSpace=wrap;html=1;rotation=90;" parent="YRqoyZLrJu3xnGDMMG7B-3" vertex="1">
          <mxGeometry x="85.75000000000091" y="599.1875000000045" width="46.25" height="13.75" as="geometry" />
        </mxCell>
        <mxCell id="AiwuUsq-4AUICBw67kCG-82" value="" style="shape=process;whiteSpace=wrap;html=1;backgroundOutline=1;fillColor=#f8cecc;strokeColor=#b85450;" parent="YRqoyZLrJu3xnGDMMG7B-3" vertex="1">
          <mxGeometry x="100" y="551.1902272727316" width="20" height="10" as="geometry" />
        </mxCell>
        <mxCell id="_Nc8eTW4AAFqFcOwRR8p-29" value="" style="endArrow=block;startArrow=block;html=1;rounded=0;endSize=12;strokeWidth=2;startSize=12;startFill=1;endFill=1;sourcePerimeterSpacing=17;" parent="YRqoyZLrJu3xnGDMMG7B-3" edge="1">
          <mxGeometry width="50" height="50" relative="1" as="geometry">
            <mxPoint x="87.00000000000091" y="579.37500000001" as="sourcePoint" />
            <mxPoint x="87.00000000000091" as="targetPoint" />
          </mxGeometry>
        </mxCell>
        <mxCell id="_Nc8eTW4AAFqFcOwRR8p-30" value="" style="endArrow=block;startArrow=block;html=1;rounded=0;endSize=12;strokeWidth=2;startSize=12;startFill=1;endFill=1;sourcePerimeterSpacing=17;fillColor=#dae8fc;strokeColor=#000000;" parent="YRqoyZLrJu3xnGDMMG7B-3" edge="1">
          <mxGeometry width="50" height="50" relative="1" as="geometry">
            <mxPoint x="67.00000000000091" y="579.37500000001" as="sourcePoint" />
            <mxPoint x="67.00000000000091" as="targetPoint" />
          </mxGeometry>
        </mxCell>
        <mxCell id="_Nc8eTW4AAFqFcOwRR8p-31" value="" style="endArrow=block;startArrow=block;html=1;rounded=0;endSize=12;strokeWidth=2;startSize=12;startFill=1;endFill=1;sourcePerimeterSpacing=17;fillColor=#f8cecc;strokeColor=#b85450;" parent="YRqoyZLrJu3xnGDMMG7B-3" edge="1">
          <mxGeometry width="50" height="50" relative="1" as="geometry">
            <mxPoint x="47.00000000000091" y="579.37500000001" as="sourcePoint" />
            <mxPoint x="47.00000000000091" as="targetPoint" />
          </mxGeometry>
        </mxCell>
        <mxCell id="_Nc8eTW4AAFqFcOwRR8p-32" value="" style="endArrow=block;startArrow=block;html=1;rounded=0;endSize=12;strokeWidth=2;startSize=12;startFill=1;endFill=1;sourcePerimeterSpacing=17;fillColor=#dae8fc;strokeColor=#000000;" parent="YRqoyZLrJu3xnGDMMG7B-3" edge="1">
          <mxGeometry width="50" height="50" relative="1" as="geometry">
            <mxPoint x="27.00000000000091" y="579.37500000001" as="sourcePoint" />
            <mxPoint x="27.00000000000091" as="targetPoint" />
          </mxGeometry>
        </mxCell>
        <mxCell id="HH2GkFfhaR6v-Zu-v0qC-35" value="" style="rounded=0;whiteSpace=wrap;html=1;" parent="YRqoyZLrJu3xnGDMMG7B-3" vertex="1">
          <mxGeometry x="15.00000000000091" y="632.1875000000045" width="110" height="75" as="geometry" />
        </mxCell>
        <mxCell id="YRqoyZLrJu3xnGDMMG7B-4" value="" style="group" vertex="1" connectable="0" parent="1">
          <mxGeometry x="513" y="541" width="125.00000000000091" height="707.1875000000045" as="geometry" />
        </mxCell>
        <mxCell id="YRqoyZLrJu3xnGDMMG7B-5" value="" style="endArrow=block;startArrow=none;html=1;rounded=0;endSize=12;strokeWidth=2;startSize=12;startFill=0;endFill=1;sourcePerimeterSpacing=17;" edge="1" parent="YRqoyZLrJu3xnGDMMG7B-4">
          <mxGeometry width="50" height="50" relative="1" as="geometry">
            <mxPoint y="482.1902272727316" as="sourcePoint" />
            <mxPoint x="9.094947017729282e-13" y="0.19022727273159035" as="targetPoint" />
          </mxGeometry>
        </mxCell>
        <mxCell id="YRqoyZLrJu3xnGDMMG7B-6" value="" style="rounded=0;whiteSpace=wrap;html=1;rotation=90;" vertex="1" parent="YRqoyZLrJu3xnGDMMG7B-4">
          <mxGeometry x="6.0000000000009095" y="599.1875000000045" width="46.25" height="15" as="geometry" />
        </mxCell>
        <mxCell id="YRqoyZLrJu3xnGDMMG7B-7" value="" style="rounded=0;whiteSpace=wrap;html=1;rotation=90;" vertex="1" parent="YRqoyZLrJu3xnGDMMG7B-4">
          <mxGeometry x="26.00000000000091" y="599.1875000000045" width="46.25" height="13.75" as="geometry" />
        </mxCell>
        <mxCell id="YRqoyZLrJu3xnGDMMG7B-8" value="" style="rounded=0;whiteSpace=wrap;html=1;rotation=90;" vertex="1" parent="YRqoyZLrJu3xnGDMMG7B-4">
          <mxGeometry x="47.870000000000914" y="599.1875000000045" width="46.25" height="13.75" as="geometry" />
        </mxCell>
        <mxCell id="YRqoyZLrJu3xnGDMMG7B-9" value="" style="rounded=0;whiteSpace=wrap;html=1;rotation=90;" vertex="1" parent="YRqoyZLrJu3xnGDMMG7B-4">
          <mxGeometry x="66.00000000000091" y="599.1875000000045" width="46.25" height="13.75" as="geometry" />
        </mxCell>
        <mxCell id="YRqoyZLrJu3xnGDMMG7B-10" value="" style="rounded=0;whiteSpace=wrap;html=1;rotation=90;" vertex="1" parent="YRqoyZLrJu3xnGDMMG7B-4">
          <mxGeometry x="85.75000000000091" y="599.1875000000045" width="46.25" height="13.75" as="geometry" />
        </mxCell>
        <mxCell id="YRqoyZLrJu3xnGDMMG7B-11" value="" style="shape=process;whiteSpace=wrap;html=1;backgroundOutline=1;fillColor=#f8cecc;strokeColor=#b85450;" vertex="1" parent="YRqoyZLrJu3xnGDMMG7B-4">
          <mxGeometry x="100" y="551.1902272727316" width="20" height="10" as="geometry" />
        </mxCell>
        <mxCell id="YRqoyZLrJu3xnGDMMG7B-12" value="" style="endArrow=block;startArrow=block;html=1;rounded=0;endSize=12;strokeWidth=2;startSize=12;startFill=1;endFill=1;sourcePerimeterSpacing=17;" edge="1" parent="YRqoyZLrJu3xnGDMMG7B-4">
          <mxGeometry width="50" height="50" relative="1" as="geometry">
            <mxPoint x="87.00000000000091" y="579.37500000001" as="sourcePoint" />
            <mxPoint x="87.00000000000091" as="targetPoint" />
          </mxGeometry>
        </mxCell>
        <mxCell id="YRqoyZLrJu3xnGDMMG7B-13" value="" style="endArrow=block;startArrow=block;html=1;rounded=0;endSize=12;strokeWidth=2;startSize=12;startFill=1;endFill=1;sourcePerimeterSpacing=17;fillColor=#dae8fc;strokeColor=#000000;" edge="1" parent="YRqoyZLrJu3xnGDMMG7B-4">
          <mxGeometry width="50" height="50" relative="1" as="geometry">
            <mxPoint x="67.00000000000091" y="579.37500000001" as="sourcePoint" />
            <mxPoint x="67.00000000000091" as="targetPoint" />
          </mxGeometry>
        </mxCell>
        <mxCell id="YRqoyZLrJu3xnGDMMG7B-14" value="" style="endArrow=block;startArrow=block;html=1;rounded=0;endSize=12;strokeWidth=2;startSize=12;startFill=1;endFill=1;sourcePerimeterSpacing=17;fillColor=#dae8fc;strokeColor=#6c8ebf;" edge="1" parent="YRqoyZLrJu3xnGDMMG7B-4">
          <mxGeometry width="50" height="50" relative="1" as="geometry">
            <mxPoint x="47.00000000000091" y="579.37500000001" as="sourcePoint" />
            <mxPoint x="47.00000000000091" as="targetPoint" />
          </mxGeometry>
        </mxCell>
        <mxCell id="YRqoyZLrJu3xnGDMMG7B-15" value="" style="endArrow=block;startArrow=block;html=1;rounded=0;endSize=12;strokeWidth=2;startSize=12;startFill=1;endFill=1;sourcePerimeterSpacing=17;fillColor=#dae8fc;strokeColor=#000000;" edge="1" parent="YRqoyZLrJu3xnGDMMG7B-4">
          <mxGeometry width="50" height="50" relative="1" as="geometry">
            <mxPoint x="27.00000000000091" y="579.37500000001" as="sourcePoint" />
            <mxPoint x="27.00000000000091" as="targetPoint" />
          </mxGeometry>
        </mxCell>
        <mxCell id="YRqoyZLrJu3xnGDMMG7B-16" value="" style="rounded=0;whiteSpace=wrap;html=1;" vertex="1" parent="YRqoyZLrJu3xnGDMMG7B-4">
          <mxGeometry x="15.00000000000091" y="632.1875000000045" width="110" height="75" as="geometry" />
        </mxCell>
        <mxCell id="YRqoyZLrJu3xnGDMMG7B-17" value="" style="group" vertex="1" connectable="0" parent="1">
          <mxGeometry x="380" y="540" width="125.00000000000091" height="707.1875000000045" as="geometry" />
        </mxCell>
        <mxCell id="YRqoyZLrJu3xnGDMMG7B-18" value="" style="endArrow=block;startArrow=none;html=1;rounded=0;endSize=12;strokeWidth=2;startSize=12;startFill=0;endFill=1;sourcePerimeterSpacing=17;fillColor=#f8cecc;strokeColor=#b85450;" edge="1" parent="YRqoyZLrJu3xnGDMMG7B-17">
          <mxGeometry width="50" height="50" relative="1" as="geometry">
            <mxPoint y="482.1902272727316" as="sourcePoint" />
            <mxPoint x="9.094947017729282e-13" y="0.19022727273159035" as="targetPoint" />
          </mxGeometry>
        </mxCell>
        <mxCell id="YRqoyZLrJu3xnGDMMG7B-19" value="" style="rounded=0;whiteSpace=wrap;html=1;rotation=90;" vertex="1" parent="YRqoyZLrJu3xnGDMMG7B-17">
          <mxGeometry x="6.0000000000009095" y="599.1875000000045" width="46.25" height="15" as="geometry" />
        </mxCell>
        <mxCell id="YRqoyZLrJu3xnGDMMG7B-20" value="" style="rounded=0;whiteSpace=wrap;html=1;rotation=90;" vertex="1" parent="YRqoyZLrJu3xnGDMMG7B-17">
          <mxGeometry x="26.00000000000091" y="599.1875000000045" width="46.25" height="13.75" as="geometry" />
        </mxCell>
        <mxCell id="YRqoyZLrJu3xnGDMMG7B-21" value="" style="rounded=0;whiteSpace=wrap;html=1;rotation=90;" vertex="1" parent="YRqoyZLrJu3xnGDMMG7B-17">
          <mxGeometry x="47.870000000000914" y="599.1875000000045" width="46.25" height="13.75" as="geometry" />
        </mxCell>
        <mxCell id="YRqoyZLrJu3xnGDMMG7B-22" value="" style="rounded=0;whiteSpace=wrap;html=1;rotation=90;" vertex="1" parent="YRqoyZLrJu3xnGDMMG7B-17">
          <mxGeometry x="66.00000000000091" y="599.1875000000045" width="46.25" height="13.75" as="geometry" />
        </mxCell>
        <mxCell id="YRqoyZLrJu3xnGDMMG7B-23" value="" style="rounded=0;whiteSpace=wrap;html=1;rotation=90;" vertex="1" parent="YRqoyZLrJu3xnGDMMG7B-17">
          <mxGeometry x="85.75000000000091" y="599.1875000000045" width="46.25" height="13.75" as="geometry" />
        </mxCell>
        <mxCell id="YRqoyZLrJu3xnGDMMG7B-24" value="" style="shape=process;whiteSpace=wrap;html=1;backgroundOutline=1;fillColor=#f8cecc;strokeColor=#b85450;" vertex="1" parent="YRqoyZLrJu3xnGDMMG7B-17">
          <mxGeometry x="100" y="551.1902272727316" width="20" height="10" as="geometry" />
        </mxCell>
        <mxCell id="YRqoyZLrJu3xnGDMMG7B-25" value="" style="endArrow=block;startArrow=block;html=1;rounded=0;endSize=12;strokeWidth=2;startSize=12;startFill=1;endFill=1;sourcePerimeterSpacing=17;fillColor=#dae8fc;strokeColor=#6c8ebf;" edge="1" parent="YRqoyZLrJu3xnGDMMG7B-17">
          <mxGeometry width="50" height="50" relative="1" as="geometry">
            <mxPoint x="87.00000000000091" y="579.37500000001" as="sourcePoint" />
            <mxPoint x="87.00000000000091" as="targetPoint" />
          </mxGeometry>
        </mxCell>
        <mxCell id="YRqoyZLrJu3xnGDMMG7B-26" value="" style="endArrow=block;startArrow=block;html=1;rounded=0;endSize=12;strokeWidth=2;startSize=12;startFill=1;endFill=1;sourcePerimeterSpacing=17;fillColor=#dae8fc;strokeColor=#000000;" edge="1" parent="YRqoyZLrJu3xnGDMMG7B-17">
          <mxGeometry width="50" height="50" relative="1" as="geometry">
            <mxPoint x="67.00000000000091" y="579.37500000001" as="sourcePoint" />
            <mxPoint x="67.00000000000091" as="targetPoint" />
          </mxGeometry>
        </mxCell>
        <mxCell id="YRqoyZLrJu3xnGDMMG7B-27" value="" style="endArrow=block;startArrow=block;html=1;rounded=0;endSize=12;strokeWidth=2;startSize=12;startFill=1;endFill=1;sourcePerimeterSpacing=17;" edge="1" parent="YRqoyZLrJu3xnGDMMG7B-17">
          <mxGeometry width="50" height="50" relative="1" as="geometry">
            <mxPoint x="47.00000000000091" y="579.37500000001" as="sourcePoint" />
            <mxPoint x="47.00000000000091" as="targetPoint" />
          </mxGeometry>
        </mxCell>
        <mxCell id="YRqoyZLrJu3xnGDMMG7B-28" value="" style="endArrow=block;startArrow=block;html=1;rounded=0;endSize=12;strokeWidth=2;startSize=12;startFill=1;endFill=1;sourcePerimeterSpacing=17;fillColor=#dae8fc;strokeColor=#000000;" edge="1" parent="YRqoyZLrJu3xnGDMMG7B-17">
          <mxGeometry width="50" height="50" relative="1" as="geometry">
            <mxPoint x="27.00000000000091" y="579.37500000001" as="sourcePoint" />
            <mxPoint x="27.00000000000091" as="targetPoint" />
          </mxGeometry>
        </mxCell>
        <mxCell id="YRqoyZLrJu3xnGDMMG7B-29" value="" style="rounded=0;whiteSpace=wrap;html=1;" vertex="1" parent="YRqoyZLrJu3xnGDMMG7B-17">
          <mxGeometry x="15.00000000000091" y="632.1875000000045" width="110" height="75" as="geometry" />
        </mxCell>
        <mxCell id="HH2GkFfhaR6v-Zu-v0qC-70" value="" style="group;aspect=fixed;" parent="1" vertex="1" connectable="0">
          <mxGeometry x="394.15" y="406" width="122.1" height="295.82" as="geometry" />
        </mxCell>
        <mxCell id="HH2GkFfhaR6v-Zu-v0qC-71" value="" style="endArrow=none;html=1;rounded=0;strokeWidth=4;" parent="HH2GkFfhaR6v-Zu-v0qC-70" edge="1">
          <mxGeometry width="50" height="50" relative="1" as="geometry">
            <mxPoint x="22.470000000000002" y="154.17978314095836" as="sourcePoint" />
            <mxPoint x="22.470000000000002" y="24.344176285414477" as="targetPoint" />
          </mxGeometry>
        </mxCell>
        <mxCell id="HH2GkFfhaR6v-Zu-v0qC-72" value="" style="endArrow=none;html=1;rounded=0;strokeWidth=4;" parent="HH2GkFfhaR6v-Zu-v0qC-70" edge="1">
          <mxGeometry width="50" height="50" relative="1" as="geometry">
            <mxPoint x="74.89999999999999" y="154.17978314095836" as="sourcePoint" />
            <mxPoint x="74.89999999999999" y="24.344176285414477" as="targetPoint" />
          </mxGeometry>
        </mxCell>
        <mxCell id="HH2GkFfhaR6v-Zu-v0qC-73" value="" style="endArrow=none;html=1;rounded=0;" parent="HH2GkFfhaR6v-Zu-v0qC-70" edge="1">
          <mxGeometry width="50" height="50" relative="1" as="geometry">
            <mxPoint x="48.685" y="154.17978314095836" as="sourcePoint" />
            <mxPoint x="48.685" as="targetPoint" />
          </mxGeometry>
        </mxCell>
        <mxCell id="HH2GkFfhaR6v-Zu-v0qC-74" value="" style="endArrow=none;html=1;rounded=0;" parent="HH2GkFfhaR6v-Zu-v0qC-70" edge="1">
          <mxGeometry width="50" height="50" relative="1" as="geometry">
            <mxPoint x="22.470000000000002" y="32.45890171388597" as="sourcePoint" />
            <mxPoint x="74.89999999999999" y="32.45890171388597" as="targetPoint" />
          </mxGeometry>
        </mxCell>
        <mxCell id="HH2GkFfhaR6v-Zu-v0qC-75" value="" style="endArrow=none;html=1;rounded=0;" parent="HH2GkFfhaR6v-Zu-v0qC-70" edge="1">
          <mxGeometry width="50" height="50" relative="1" as="geometry">
            <mxPoint x="22.470000000000002" y="40.573627142357466" as="sourcePoint" />
            <mxPoint x="74.89999999999999" y="40.573627142357466" as="targetPoint" />
          </mxGeometry>
        </mxCell>
        <mxCell id="HH2GkFfhaR6v-Zu-v0qC-76" value="" style="endArrow=none;html=1;rounded=0;" parent="HH2GkFfhaR6v-Zu-v0qC-70" edge="1">
          <mxGeometry width="50" height="50" relative="1" as="geometry">
            <mxPoint x="22.470000000000002" y="48.688352570828954" as="sourcePoint" />
            <mxPoint x="74.89999999999999" y="48.688352570828954" as="targetPoint" />
          </mxGeometry>
        </mxCell>
        <mxCell id="HH2GkFfhaR6v-Zu-v0qC-77" value="" style="endArrow=none;html=1;rounded=0;" parent="HH2GkFfhaR6v-Zu-v0qC-70" edge="1">
          <mxGeometry width="50" height="50" relative="1" as="geometry">
            <mxPoint x="22.470000000000002" y="56.80307799930045" as="sourcePoint" />
            <mxPoint x="74.89999999999999" y="56.80307799930045" as="targetPoint" />
          </mxGeometry>
        </mxCell>
        <mxCell id="HH2GkFfhaR6v-Zu-v0qC-78" value="" style="endArrow=none;html=1;rounded=0;" parent="HH2GkFfhaR6v-Zu-v0qC-70" edge="1">
          <mxGeometry width="50" height="50" relative="1" as="geometry">
            <mxPoint x="22.470000000000002" y="64.91780342777194" as="sourcePoint" />
            <mxPoint x="74.89999999999999" y="64.91780342777194" as="targetPoint" />
          </mxGeometry>
        </mxCell>
        <mxCell id="HH2GkFfhaR6v-Zu-v0qC-79" value="" style="endArrow=none;html=1;rounded=0;" parent="HH2GkFfhaR6v-Zu-v0qC-70" edge="1">
          <mxGeometry width="50" height="50" relative="1" as="geometry">
            <mxPoint x="22.470000000000002" y="73.03252885624343" as="sourcePoint" />
            <mxPoint x="74.89999999999999" y="73.03252885624343" as="targetPoint" />
          </mxGeometry>
        </mxCell>
        <mxCell id="HH2GkFfhaR6v-Zu-v0qC-80" value="" style="endArrow=none;html=1;rounded=0;" parent="HH2GkFfhaR6v-Zu-v0qC-70" edge="1">
          <mxGeometry width="50" height="50" relative="1" as="geometry">
            <mxPoint x="22.470000000000002" y="73.03252885624343" as="sourcePoint" />
            <mxPoint x="74.89999999999999" y="73.03252885624343" as="targetPoint" />
          </mxGeometry>
        </mxCell>
        <mxCell id="HH2GkFfhaR6v-Zu-v0qC-81" value="" style="endArrow=none;html=1;rounded=0;" parent="HH2GkFfhaR6v-Zu-v0qC-70" edge="1">
          <mxGeometry width="50" height="50" relative="1" as="geometry">
            <mxPoint x="22.470000000000002" y="81.14725428471493" as="sourcePoint" />
            <mxPoint x="74.89999999999999" y="81.14725428471493" as="targetPoint" />
          </mxGeometry>
        </mxCell>
        <mxCell id="HH2GkFfhaR6v-Zu-v0qC-82" value="" style="endArrow=none;html=1;rounded=0;" parent="HH2GkFfhaR6v-Zu-v0qC-70" edge="1">
          <mxGeometry width="50" height="50" relative="1" as="geometry">
            <mxPoint x="22.470000000000002" y="89.26197971318642" as="sourcePoint" />
            <mxPoint x="74.89999999999999" y="89.26197971318642" as="targetPoint" />
          </mxGeometry>
        </mxCell>
        <mxCell id="HH2GkFfhaR6v-Zu-v0qC-83" value="" style="endArrow=none;html=1;rounded=0;" parent="HH2GkFfhaR6v-Zu-v0qC-70" edge="1">
          <mxGeometry width="50" height="50" relative="1" as="geometry">
            <mxPoint x="22.470000000000002" y="97.37670514165791" as="sourcePoint" />
            <mxPoint x="74.89999999999999" y="97.37670514165791" as="targetPoint" />
          </mxGeometry>
        </mxCell>
        <mxCell id="HH2GkFfhaR6v-Zu-v0qC-84" value="" style="endArrow=none;html=1;rounded=0;" parent="HH2GkFfhaR6v-Zu-v0qC-70" edge="1">
          <mxGeometry width="50" height="50" relative="1" as="geometry">
            <mxPoint x="22.470000000000002" y="105.49143057012941" as="sourcePoint" />
            <mxPoint x="74.89999999999999" y="105.49143057012941" as="targetPoint" />
          </mxGeometry>
        </mxCell>
        <mxCell id="HH2GkFfhaR6v-Zu-v0qC-85" value="" style="endArrow=none;html=1;rounded=0;" parent="HH2GkFfhaR6v-Zu-v0qC-70" edge="1">
          <mxGeometry width="50" height="50" relative="1" as="geometry">
            <mxPoint x="22.470000000000002" y="113.6061559986009" as="sourcePoint" />
            <mxPoint x="74.89999999999999" y="113.6061559986009" as="targetPoint" />
          </mxGeometry>
        </mxCell>
        <mxCell id="HH2GkFfhaR6v-Zu-v0qC-86" value="" style="endArrow=none;html=1;rounded=0;" parent="HH2GkFfhaR6v-Zu-v0qC-70" edge="1">
          <mxGeometry width="50" height="50" relative="1" as="geometry">
            <mxPoint x="22.470000000000002" y="121.7208814270724" as="sourcePoint" />
            <mxPoint x="74.89999999999999" y="121.7208814270724" as="targetPoint" />
          </mxGeometry>
        </mxCell>
        <mxCell id="HH2GkFfhaR6v-Zu-v0qC-87" value="" style="endArrow=none;html=1;rounded=0;" parent="HH2GkFfhaR6v-Zu-v0qC-70" edge="1">
          <mxGeometry width="50" height="50" relative="1" as="geometry">
            <mxPoint x="22.470000000000002" y="129.8356068555439" as="sourcePoint" />
            <mxPoint x="74.89999999999999" y="129.8356068555439" as="targetPoint" />
          </mxGeometry>
        </mxCell>
        <mxCell id="HH2GkFfhaR6v-Zu-v0qC-88" value="" style="endArrow=none;html=1;rounded=0;" parent="HH2GkFfhaR6v-Zu-v0qC-70" edge="1">
          <mxGeometry width="50" height="50" relative="1" as="geometry">
            <mxPoint x="22.470000000000002" y="137.9503322840154" as="sourcePoint" />
            <mxPoint x="74.89999999999999" y="137.9503322840154" as="targetPoint" />
          </mxGeometry>
        </mxCell>
        <mxCell id="HH2GkFfhaR6v-Zu-v0qC-89" value="" style="endArrow=none;html=1;rounded=0;" parent="HH2GkFfhaR6v-Zu-v0qC-70" edge="1">
          <mxGeometry width="50" height="50" relative="1" as="geometry">
            <mxPoint x="22.470000000000002" y="146.06505771248686" as="sourcePoint" />
            <mxPoint x="74.89999999999999" y="146.06505771248686" as="targetPoint" />
          </mxGeometry>
        </mxCell>
        <mxCell id="HH2GkFfhaR6v-Zu-v0qC-90" value="" style="endArrow=none;html=1;rounded=0;" parent="HH2GkFfhaR6v-Zu-v0qC-70" edge="1">
          <mxGeometry width="50" height="50" relative="1" as="geometry">
            <mxPoint x="22.470000000000002" y="154.17978314095836" as="sourcePoint" />
            <mxPoint x="74.89999999999999" y="154.17978314095836" as="targetPoint" />
          </mxGeometry>
        </mxCell>
        <mxCell id="HH2GkFfhaR6v-Zu-v0qC-91" value="" style="endArrow=none;html=1;rounded=0;strokeWidth=4;" parent="HH2GkFfhaR6v-Zu-v0qC-70" edge="1">
          <mxGeometry width="50" height="50" relative="1" as="geometry">
            <mxPoint x="37.449999999999996" as="sourcePoint" />
            <mxPoint x="59.92" as="targetPoint" />
          </mxGeometry>
        </mxCell>
        <mxCell id="HH2GkFfhaR6v-Zu-v0qC-92" value="" style="endArrow=none;html=1;rounded=0;strokeWidth=4;" parent="HH2GkFfhaR6v-Zu-v0qC-70" edge="1">
          <mxGeometry width="50" height="50" relative="1" as="geometry">
            <mxPoint x="74.89999999999999" y="24.344176285414477" as="sourcePoint" />
            <mxPoint x="59.92" as="targetPoint" />
          </mxGeometry>
        </mxCell>
        <mxCell id="HH2GkFfhaR6v-Zu-v0qC-93" value="" style="endArrow=none;html=1;rounded=0;strokeWidth=4;" parent="HH2GkFfhaR6v-Zu-v0qC-70" edge="1">
          <mxGeometry width="50" height="50" relative="1" as="geometry">
            <mxPoint x="22.470000000000002" y="24.344176285414477" as="sourcePoint" />
            <mxPoint x="37.449999999999996" as="targetPoint" />
          </mxGeometry>
        </mxCell>
        <mxCell id="HH2GkFfhaR6v-Zu-v0qC-94" value="" style="endArrow=none;html=1;rounded=0;strokeWidth=9;" parent="HH2GkFfhaR6v-Zu-v0qC-70" edge="1">
          <mxGeometry width="50" height="50" relative="1" as="geometry">
            <mxPoint y="24.344176285414477" as="sourcePoint" />
            <mxPoint x="97.37" y="24.344176285414477" as="targetPoint" />
          </mxGeometry>
        </mxCell>
        <mxCell id="HH2GkFfhaR6v-Zu-v0qC-95" value="" style="endArrow=none;html=1;rounded=0;" parent="HH2GkFfhaR6v-Zu-v0qC-70" edge="1">
          <mxGeometry width="50" height="50" relative="1" as="geometry">
            <mxPoint x="29.96" y="12.172088142707238" as="sourcePoint" />
            <mxPoint x="67.41" y="12.172088142707238" as="targetPoint" />
          </mxGeometry>
        </mxCell>
        <mxCell id="HH2GkFfhaR6v-Zu-v0qC-96" value="" style="group" parent="HH2GkFfhaR6v-Zu-v0qC-70" vertex="1" connectable="0">
          <mxGeometry x="22.47" y="140" width="99.63" height="155.82" as="geometry" />
        </mxCell>
        <mxCell id="HH2GkFfhaR6v-Zu-v0qC-97" value="" style="rounded=0;whiteSpace=wrap;html=1;rotation=90;" parent="HH2GkFfhaR6v-Zu-v0qC-96" vertex="1">
          <mxGeometry x="-46.46" y="48.11" width="146.09" height="66.1" as="geometry" />
        </mxCell>
        <mxCell id="HH2GkFfhaR6v-Zu-v0qC-98" value="" style="rounded=0;whiteSpace=wrap;html=1;" parent="HH2GkFfhaR6v-Zu-v0qC-96" vertex="1">
          <mxGeometry x="3.97" y="16.92" width="45.25" height="18.08" as="geometry" />
        </mxCell>
        <mxCell id="HH2GkFfhaR6v-Zu-v0qC-99" value="" style="rounded=0;whiteSpace=wrap;html=1;" parent="HH2GkFfhaR6v-Zu-v0qC-96" vertex="1">
          <mxGeometry x="3.960074653528648" y="40.81858477912863" width="45.25085089979126" height="20.823243791372818" as="geometry" />
        </mxCell>
        <mxCell id="HH2GkFfhaR6v-Zu-v0qC-100" value="" style="rounded=0;whiteSpace=wrap;html=1;" parent="HH2GkFfhaR6v-Zu-v0qC-96" vertex="1">
          <mxGeometry x="3.9600000000000004" y="68.03" width="45.25" height="19.77" as="geometry" />
        </mxCell>
        <mxCell id="HH2GkFfhaR6v-Zu-v0qC-101" value="" style="rounded=0;whiteSpace=wrap;html=1;" parent="HH2GkFfhaR6v-Zu-v0qC-96" vertex="1">
          <mxGeometry x="3.96" y="95.82" width="45.25" height="23.31" as="geometry" />
        </mxCell>
        <mxCell id="HH2GkFfhaR6v-Zu-v0qC-102" value="" style="rounded=0;whiteSpace=wrap;html=1;" parent="HH2GkFfhaR6v-Zu-v0qC-96" vertex="1">
          <mxGeometry x="3.9660295774647847" y="129.82036559511954" width="45.24794084507042" height="17.49332496863237" as="geometry" />
        </mxCell>
        <mxCell id="HH2GkFfhaR6v-Zu-v0qC-37" value="" style="group;aspect=fixed;" parent="1" vertex="1" connectable="0">
          <mxGeometry x="171.9" y="407.18" width="122.1" height="295.82" as="geometry" />
        </mxCell>
        <mxCell id="HH2GkFfhaR6v-Zu-v0qC-38" value="" style="endArrow=none;html=1;rounded=0;strokeWidth=4;" parent="HH2GkFfhaR6v-Zu-v0qC-37" edge="1">
          <mxGeometry width="50" height="50" relative="1" as="geometry">
            <mxPoint x="22.470000000000002" y="154.17978314095836" as="sourcePoint" />
            <mxPoint x="22.470000000000002" y="24.344176285414477" as="targetPoint" />
          </mxGeometry>
        </mxCell>
        <mxCell id="HH2GkFfhaR6v-Zu-v0qC-39" value="" style="endArrow=none;html=1;rounded=0;strokeWidth=4;" parent="HH2GkFfhaR6v-Zu-v0qC-37" edge="1">
          <mxGeometry width="50" height="50" relative="1" as="geometry">
            <mxPoint x="74.89999999999999" y="154.17978314095836" as="sourcePoint" />
            <mxPoint x="74.89999999999999" y="24.344176285414477" as="targetPoint" />
          </mxGeometry>
        </mxCell>
        <mxCell id="HH2GkFfhaR6v-Zu-v0qC-40" value="" style="endArrow=none;html=1;rounded=0;" parent="HH2GkFfhaR6v-Zu-v0qC-37" edge="1">
          <mxGeometry width="50" height="50" relative="1" as="geometry">
            <mxPoint x="48.685" y="154.17978314095836" as="sourcePoint" />
            <mxPoint x="48.685" as="targetPoint" />
          </mxGeometry>
        </mxCell>
        <mxCell id="HH2GkFfhaR6v-Zu-v0qC-41" value="" style="endArrow=none;html=1;rounded=0;" parent="HH2GkFfhaR6v-Zu-v0qC-37" edge="1">
          <mxGeometry width="50" height="50" relative="1" as="geometry">
            <mxPoint x="22.470000000000002" y="32.45890171388597" as="sourcePoint" />
            <mxPoint x="74.89999999999999" y="32.45890171388597" as="targetPoint" />
          </mxGeometry>
        </mxCell>
        <mxCell id="HH2GkFfhaR6v-Zu-v0qC-42" value="" style="endArrow=none;html=1;rounded=0;" parent="HH2GkFfhaR6v-Zu-v0qC-37" edge="1">
          <mxGeometry width="50" height="50" relative="1" as="geometry">
            <mxPoint x="22.470000000000002" y="40.573627142357466" as="sourcePoint" />
            <mxPoint x="74.89999999999999" y="40.573627142357466" as="targetPoint" />
          </mxGeometry>
        </mxCell>
        <mxCell id="HH2GkFfhaR6v-Zu-v0qC-43" value="" style="endArrow=none;html=1;rounded=0;" parent="HH2GkFfhaR6v-Zu-v0qC-37" edge="1">
          <mxGeometry width="50" height="50" relative="1" as="geometry">
            <mxPoint x="22.470000000000002" y="48.688352570828954" as="sourcePoint" />
            <mxPoint x="74.89999999999999" y="48.688352570828954" as="targetPoint" />
          </mxGeometry>
        </mxCell>
        <mxCell id="HH2GkFfhaR6v-Zu-v0qC-44" value="" style="endArrow=none;html=1;rounded=0;" parent="HH2GkFfhaR6v-Zu-v0qC-37" edge="1">
          <mxGeometry width="50" height="50" relative="1" as="geometry">
            <mxPoint x="22.470000000000002" y="56.80307799930045" as="sourcePoint" />
            <mxPoint x="74.89999999999999" y="56.80307799930045" as="targetPoint" />
          </mxGeometry>
        </mxCell>
        <mxCell id="HH2GkFfhaR6v-Zu-v0qC-45" value="" style="endArrow=none;html=1;rounded=0;" parent="HH2GkFfhaR6v-Zu-v0qC-37" edge="1">
          <mxGeometry width="50" height="50" relative="1" as="geometry">
            <mxPoint x="22.470000000000002" y="64.91780342777194" as="sourcePoint" />
            <mxPoint x="74.89999999999999" y="64.91780342777194" as="targetPoint" />
          </mxGeometry>
        </mxCell>
        <mxCell id="HH2GkFfhaR6v-Zu-v0qC-46" value="" style="endArrow=none;html=1;rounded=0;" parent="HH2GkFfhaR6v-Zu-v0qC-37" edge="1">
          <mxGeometry width="50" height="50" relative="1" as="geometry">
            <mxPoint x="22.470000000000002" y="73.03252885624343" as="sourcePoint" />
            <mxPoint x="74.89999999999999" y="73.03252885624343" as="targetPoint" />
          </mxGeometry>
        </mxCell>
        <mxCell id="HH2GkFfhaR6v-Zu-v0qC-47" value="" style="endArrow=none;html=1;rounded=0;" parent="HH2GkFfhaR6v-Zu-v0qC-37" edge="1">
          <mxGeometry width="50" height="50" relative="1" as="geometry">
            <mxPoint x="22.470000000000002" y="73.03252885624343" as="sourcePoint" />
            <mxPoint x="74.89999999999999" y="73.03252885624343" as="targetPoint" />
          </mxGeometry>
        </mxCell>
        <mxCell id="HH2GkFfhaR6v-Zu-v0qC-48" value="" style="endArrow=none;html=1;rounded=0;" parent="HH2GkFfhaR6v-Zu-v0qC-37" edge="1">
          <mxGeometry width="50" height="50" relative="1" as="geometry">
            <mxPoint x="22.470000000000002" y="81.14725428471493" as="sourcePoint" />
            <mxPoint x="74.89999999999999" y="81.14725428471493" as="targetPoint" />
          </mxGeometry>
        </mxCell>
        <mxCell id="HH2GkFfhaR6v-Zu-v0qC-49" value="" style="endArrow=none;html=1;rounded=0;" parent="HH2GkFfhaR6v-Zu-v0qC-37" edge="1">
          <mxGeometry width="50" height="50" relative="1" as="geometry">
            <mxPoint x="22.470000000000002" y="89.26197971318642" as="sourcePoint" />
            <mxPoint x="74.89999999999999" y="89.26197971318642" as="targetPoint" />
          </mxGeometry>
        </mxCell>
        <mxCell id="HH2GkFfhaR6v-Zu-v0qC-50" value="" style="endArrow=none;html=1;rounded=0;" parent="HH2GkFfhaR6v-Zu-v0qC-37" edge="1">
          <mxGeometry width="50" height="50" relative="1" as="geometry">
            <mxPoint x="22.470000000000002" y="97.37670514165791" as="sourcePoint" />
            <mxPoint x="74.89999999999999" y="97.37670514165791" as="targetPoint" />
          </mxGeometry>
        </mxCell>
        <mxCell id="HH2GkFfhaR6v-Zu-v0qC-51" value="" style="endArrow=none;html=1;rounded=0;" parent="HH2GkFfhaR6v-Zu-v0qC-37" edge="1">
          <mxGeometry width="50" height="50" relative="1" as="geometry">
            <mxPoint x="22.470000000000002" y="105.49143057012941" as="sourcePoint" />
            <mxPoint x="74.89999999999999" y="105.49143057012941" as="targetPoint" />
          </mxGeometry>
        </mxCell>
        <mxCell id="HH2GkFfhaR6v-Zu-v0qC-52" value="" style="endArrow=none;html=1;rounded=0;" parent="HH2GkFfhaR6v-Zu-v0qC-37" edge="1">
          <mxGeometry width="50" height="50" relative="1" as="geometry">
            <mxPoint x="22.470000000000002" y="113.6061559986009" as="sourcePoint" />
            <mxPoint x="74.89999999999999" y="113.6061559986009" as="targetPoint" />
          </mxGeometry>
        </mxCell>
        <mxCell id="HH2GkFfhaR6v-Zu-v0qC-53" value="" style="endArrow=none;html=1;rounded=0;" parent="HH2GkFfhaR6v-Zu-v0qC-37" edge="1">
          <mxGeometry width="50" height="50" relative="1" as="geometry">
            <mxPoint x="22.470000000000002" y="121.7208814270724" as="sourcePoint" />
            <mxPoint x="74.89999999999999" y="121.7208814270724" as="targetPoint" />
          </mxGeometry>
        </mxCell>
        <mxCell id="HH2GkFfhaR6v-Zu-v0qC-54" value="" style="endArrow=none;html=1;rounded=0;" parent="HH2GkFfhaR6v-Zu-v0qC-37" edge="1">
          <mxGeometry width="50" height="50" relative="1" as="geometry">
            <mxPoint x="22.470000000000002" y="129.8356068555439" as="sourcePoint" />
            <mxPoint x="74.89999999999999" y="129.8356068555439" as="targetPoint" />
          </mxGeometry>
        </mxCell>
        <mxCell id="HH2GkFfhaR6v-Zu-v0qC-55" value="" style="endArrow=none;html=1;rounded=0;" parent="HH2GkFfhaR6v-Zu-v0qC-37" edge="1">
          <mxGeometry width="50" height="50" relative="1" as="geometry">
            <mxPoint x="22.470000000000002" y="137.9503322840154" as="sourcePoint" />
            <mxPoint x="74.89999999999999" y="137.9503322840154" as="targetPoint" />
          </mxGeometry>
        </mxCell>
        <mxCell id="HH2GkFfhaR6v-Zu-v0qC-56" value="" style="endArrow=none;html=1;rounded=0;" parent="HH2GkFfhaR6v-Zu-v0qC-37" edge="1">
          <mxGeometry width="50" height="50" relative="1" as="geometry">
            <mxPoint x="22.470000000000002" y="146.06505771248686" as="sourcePoint" />
            <mxPoint x="74.89999999999999" y="146.06505771248686" as="targetPoint" />
          </mxGeometry>
        </mxCell>
        <mxCell id="HH2GkFfhaR6v-Zu-v0qC-57" value="" style="endArrow=none;html=1;rounded=0;" parent="HH2GkFfhaR6v-Zu-v0qC-37" edge="1">
          <mxGeometry width="50" height="50" relative="1" as="geometry">
            <mxPoint x="22.470000000000002" y="154.17978314095836" as="sourcePoint" />
            <mxPoint x="74.89999999999999" y="154.17978314095836" as="targetPoint" />
          </mxGeometry>
        </mxCell>
        <mxCell id="HH2GkFfhaR6v-Zu-v0qC-58" value="" style="endArrow=none;html=1;rounded=0;strokeWidth=4;" parent="HH2GkFfhaR6v-Zu-v0qC-37" edge="1">
          <mxGeometry width="50" height="50" relative="1" as="geometry">
            <mxPoint x="37.449999999999996" as="sourcePoint" />
            <mxPoint x="59.92" as="targetPoint" />
          </mxGeometry>
        </mxCell>
        <mxCell id="HH2GkFfhaR6v-Zu-v0qC-59" value="" style="endArrow=none;html=1;rounded=0;strokeWidth=4;" parent="HH2GkFfhaR6v-Zu-v0qC-37" edge="1">
          <mxGeometry width="50" height="50" relative="1" as="geometry">
            <mxPoint x="74.89999999999999" y="24.344176285414477" as="sourcePoint" />
            <mxPoint x="59.92" as="targetPoint" />
          </mxGeometry>
        </mxCell>
        <mxCell id="HH2GkFfhaR6v-Zu-v0qC-60" value="" style="endArrow=none;html=1;rounded=0;strokeWidth=4;" parent="HH2GkFfhaR6v-Zu-v0qC-37" edge="1">
          <mxGeometry width="50" height="50" relative="1" as="geometry">
            <mxPoint x="22.470000000000002" y="24.344176285414477" as="sourcePoint" />
            <mxPoint x="37.449999999999996" as="targetPoint" />
          </mxGeometry>
        </mxCell>
        <mxCell id="HH2GkFfhaR6v-Zu-v0qC-61" value="" style="endArrow=none;html=1;rounded=0;strokeWidth=9;" parent="HH2GkFfhaR6v-Zu-v0qC-37" edge="1">
          <mxGeometry width="50" height="50" relative="1" as="geometry">
            <mxPoint y="24.344176285414477" as="sourcePoint" />
            <mxPoint x="97.37" y="24.344176285414477" as="targetPoint" />
          </mxGeometry>
        </mxCell>
        <mxCell id="HH2GkFfhaR6v-Zu-v0qC-62" value="" style="endArrow=none;html=1;rounded=0;" parent="HH2GkFfhaR6v-Zu-v0qC-37" edge="1">
          <mxGeometry width="50" height="50" relative="1" as="geometry">
            <mxPoint x="29.96" y="12.172088142707238" as="sourcePoint" />
            <mxPoint x="67.41" y="12.172088142707238" as="targetPoint" />
          </mxGeometry>
        </mxCell>
        <mxCell id="HH2GkFfhaR6v-Zu-v0qC-63" value="" style="group" parent="HH2GkFfhaR6v-Zu-v0qC-37" vertex="1" connectable="0">
          <mxGeometry x="22.47" y="140" width="99.63" height="155.82" as="geometry" />
        </mxCell>
        <mxCell id="HH2GkFfhaR6v-Zu-v0qC-64" value="" style="rounded=0;whiteSpace=wrap;html=1;rotation=90;" parent="HH2GkFfhaR6v-Zu-v0qC-63" vertex="1">
          <mxGeometry x="-46.46" y="48.11" width="146.09" height="66.1" as="geometry" />
        </mxCell>
        <mxCell id="HH2GkFfhaR6v-Zu-v0qC-65" value="" style="rounded=0;whiteSpace=wrap;html=1;" parent="HH2GkFfhaR6v-Zu-v0qC-63" vertex="1">
          <mxGeometry x="3.97" y="16.92" width="45.25" height="18.08" as="geometry" />
        </mxCell>
        <mxCell id="HH2GkFfhaR6v-Zu-v0qC-66" value="" style="rounded=0;whiteSpace=wrap;html=1;" parent="HH2GkFfhaR6v-Zu-v0qC-63" vertex="1">
          <mxGeometry x="3.960074653528648" y="40.81858477912863" width="45.25085089979126" height="20.823243791372818" as="geometry" />
        </mxCell>
        <mxCell id="HH2GkFfhaR6v-Zu-v0qC-67" value="" style="rounded=0;whiteSpace=wrap;html=1;" parent="HH2GkFfhaR6v-Zu-v0qC-63" vertex="1">
          <mxGeometry x="3.9600000000000004" y="68.03" width="45.25" height="19.77" as="geometry" />
        </mxCell>
        <mxCell id="HH2GkFfhaR6v-Zu-v0qC-68" value="" style="rounded=0;whiteSpace=wrap;html=1;" parent="HH2GkFfhaR6v-Zu-v0qC-63" vertex="1">
          <mxGeometry x="3.96" y="95.82" width="45.25" height="23.31" as="geometry" />
        </mxCell>
        <mxCell id="HH2GkFfhaR6v-Zu-v0qC-69" value="" style="rounded=0;whiteSpace=wrap;html=1;" parent="HH2GkFfhaR6v-Zu-v0qC-63" vertex="1">
          <mxGeometry x="3.9660295774647847" y="129.82036559511954" width="45.24794084507042" height="17.49332496863237" as="geometry" />
        </mxCell>
        <mxCell id="AiwuUsq-4AUICBw67kCG-86" value="" style="shape=process;whiteSpace=wrap;html=1;backgroundOutline=1;fillColor=#dae8fc;strokeColor=#6c8ebf;" parent="1" vertex="1">
          <mxGeometry x="372" y="547" width="20" height="10" as="geometry" />
        </mxCell>
        <mxCell id="AiwuUsq-4AUICBw67kCG-85" value="" style="shape=process;whiteSpace=wrap;html=1;backgroundOutline=1;fillColor=#dae8fc;strokeColor=#6c8ebf;" parent="1" vertex="1">
          <mxGeometry x="280" y="545" width="20" height="10" as="geometry" />
        </mxCell>
        <mxCell id="YRqoyZLrJu3xnGDMMG7B-31" value="" style="endArrow=block;startArrow=block;html=1;rounded=0;endSize=12;strokeWidth=2;startSize=12;startFill=1;endFill=1;sourcePerimeterSpacing=17;" edge="1" parent="1">
          <mxGeometry width="50" height="50" relative="1" as="geometry">
            <mxPoint x="490" y="1120" as="sourcePoint" />
            <mxPoint x="490" y="540.62499999999" as="targetPoint" />
          </mxGeometry>
        </mxCell>
        <mxCell id="YRqoyZLrJu3xnGDMMG7B-32" value="" style="endArrow=block;startArrow=block;html=1;rounded=0;endSize=12;strokeWidth=2;startSize=12;startFill=1;endFill=1;sourcePerimeterSpacing=17;" edge="1" parent="1">
          <mxGeometry width="50" height="50" relative="1" as="geometry">
            <mxPoint x="621" y="1121" as="sourcePoint" />
            <mxPoint x="621" y="541.62499999999" as="targetPoint" />
          </mxGeometry>
        </mxCell>
        <mxCell id="YRqoyZLrJu3xnGDMMG7B-33" value="&lt;b&gt;&lt;font face=&quot;Times New Roman&quot; style=&quot;font-size: 19px;&quot;&gt;280m&lt;/font&gt;&lt;/b&gt;" style="text;html=1;align=center;verticalAlign=middle;resizable=0;points=[];autosize=1;strokeColor=none;fillColor=none;" vertex="1" parent="1">
          <mxGeometry x="238.5" y="275" width="70" height="40" as="geometry" />
        </mxCell>
        <mxCell id="YRqoyZLrJu3xnGDMMG7B-34" value="" style="shape=curlyBracket;whiteSpace=wrap;html=1;rounded=1;flipH=1;labelPosition=right;verticalLabelPosition=middle;align=left;verticalAlign=middle;rotation=270;strokeWidth=5;fillColor=#d5e8d4;strokeColor=#82b366;" vertex="1" parent="1">
          <mxGeometry x="-17.19" y="366.7" width="20" height="248.62" as="geometry" />
        </mxCell>
        <mxCell id="YRqoyZLrJu3xnGDMMG7B-36" value="" style="shape=curlyBracket;whiteSpace=wrap;html=1;rounded=1;flipH=1;labelPosition=right;verticalLabelPosition=middle;align=left;verticalAlign=middle;rotation=270;strokeWidth=5;fillColor=#f8cecc;strokeColor=#b85450;" vertex="1" parent="1">
          <mxGeometry x="246.81" y="366.7" width="20" height="248.62" as="geometry" />
        </mxCell>
        <mxCell id="YRqoyZLrJu3xnGDMMG7B-37" value="" style="shape=curlyBracket;whiteSpace=wrap;html=1;rounded=1;flipH=1;labelPosition=right;verticalLabelPosition=middle;align=left;verticalAlign=middle;rotation=270;strokeWidth=5;fillColor=#dae8fc;strokeColor=#6c8ebf;" vertex="1" parent="1">
          <mxGeometry x="510.81" y="366.7" width="20" height="248.62" as="geometry" />
        </mxCell>
        <mxCell id="YRqoyZLrJu3xnGDMMG7B-43" value="" style="shape=process;whiteSpace=wrap;html=1;backgroundOutline=1;fillColor=#dae8fc;strokeColor=#6c8ebf;" vertex="1" parent="1">
          <mxGeometry x="280" y="527" width="20" height="10" as="geometry" />
        </mxCell>
        <mxCell id="YRqoyZLrJu3xnGDMMG7B-44" value="" style="shape=process;whiteSpace=wrap;html=1;backgroundOutline=1;fillColor=#dae8fc;strokeColor=#6c8ebf;" vertex="1" parent="1">
          <mxGeometry x="549" y="547" width="20" height="10" as="geometry" />
        </mxCell>
        <mxCell id="YRqoyZLrJu3xnGDMMG7B-45" value="" style="shape=process;whiteSpace=wrap;html=1;backgroundOutline=1;fillColor=#dae8fc;strokeColor=#6c8ebf;" vertex="1" parent="1">
          <mxGeometry x="549" y="527" width="20" height="10" as="geometry" />
        </mxCell>
        <mxCell id="YRqoyZLrJu3xnGDMMG7B-46" value="" style="shape=process;whiteSpace=wrap;html=1;backgroundOutline=1;fillColor=#dae8fc;strokeColor=#6c8ebf;" vertex="1" parent="1">
          <mxGeometry x="459" y="547" width="20" height="10" as="geometry" />
        </mxCell>
      </root>
    </mxGraphModel>
  </diagram>
</mxfile>
